<svg width="18" height="17" viewBox="0 0 18 17" fill="none" xmlns="http://www.w3.org/2000/svg">
<path fill-rule="evenodd" clip-rule="evenodd" d="M12.0833 8.33366C12.0833 7.98848 11.8035 7.70866 11.4583 7.70866L2.31454 7.70866L3.94841 6.30819C4.21049 6.08356 4.24084 5.68899 4.0162 5.42691C3.79156 5.16484 3.397 5.13448 3.13492 5.35912L0.218255 7.85912C0.079726 7.97786 -3.72237e-07 8.15121 -3.64262e-07 8.33366C-3.56286e-07 8.51611 0.079726 8.68945 0.218255 8.80819L3.13492 11.3082C3.397 11.5328 3.79156 11.5025 4.0162 11.2404C4.24084 10.9783 4.21049 10.5838 3.94841 10.3591L2.31454 8.95866L11.4583 8.95866C11.8035 8.95866 12.0833 8.67884 12.0833 8.33366Z" fill="#919191"/>
<path d="M6.45833 5.00033C6.45833 5.58549 6.45833 5.87807 6.59876 6.08824C6.65957 6.17925 6.7377 6.25739 6.82871 6.3182C7.03889 6.45862 7.33147 6.45862 7.91663 6.45862L11.4583 6.45863C12.4939 6.45863 13.3333 7.29809 13.3333 8.33363C13.3333 9.36916 12.4939 10.2086 11.4583 10.2086L7.9167 10.2086C7.33148 10.2086 7.03886 10.2086 6.82867 10.3491C6.73769 10.4099 6.65958 10.488 6.59879 10.579C6.45833 10.7892 6.45833 11.0818 6.45833 11.667C6.45833 14.024 6.45833 15.2025 7.19057 15.9348C7.9228 16.667 9.10113 16.667 11.4581 16.667L12.2915 16.667C14.6485 16.667 15.827 16.667 16.5592 15.9348C17.2915 15.2025 17.2915 14.024 17.2915 11.667L17.2915 5.00033C17.2915 2.64331 17.2915 1.46479 16.5592 0.732558C15.827 0.000325226 14.6485 0.000325278 12.2915 0.000325381L11.4581 0.000325417C9.10113 0.00032552 7.9228 0.000325572 7.19056 0.732558C6.45833 1.46479 6.45833 2.6433 6.45833 5.00033Z" fill="#919191"/>
</svg>
