<svg width="20" height="20" viewBox="0 0 20 20" fill="none" xmlns="http://www.w3.org/2000/svg">
<path d="M4.16536 4.16667C4.16536 3.82779 3.96309 3.53615 3.67269 3.40592C3.79262 3.31145 3.93797 3.24679 4.09836 3.22387L13.0963 1.93845C14.1004 1.79501 14.9987 2.57412 14.9987 3.58837V4.27168C14.7323 4.20313 14.4531 4.16667 14.1654 4.16667H4.16536Z" fill="#919191"/>
<path d="M8.1237 10.8333C8.1237 9.7978 8.96316 8.95833 9.9987 8.95833C11.0342 8.95833 11.8737 9.7978 11.8737 10.8333C11.8737 11.8689 11.0342 12.7083 9.9987 12.7083C8.96316 12.7083 8.1237 11.8689 8.1237 10.8333Z" fill="#919191"/>
<path fill-rule="evenodd" clip-rule="evenodd" d="M14.9987 5.14225C15.9697 5.48545 16.6654 6.41148 16.6654 7.5V15.8333C16.6654 17.214 15.5461 18.3333 14.1654 18.3333H5.83203C4.45132 18.3333 3.33203 17.214 3.33203 15.8333V4.16667C3.33203 4.31845 3.37261 4.46076 3.44352 4.58333C3.5876 4.83242 3.85691 5 4.16536 5H14.1654C14.4576 5 14.738 5.05013 14.9987 5.14225ZM9.9987 7.70833C8.27281 7.70833 6.8737 9.10744 6.8737 10.8333C6.8737 12.5592 8.27281 13.9583 9.9987 13.9583C11.7246 13.9583 13.1237 12.5592 13.1237 10.8333C13.1237 9.10744 11.7246 7.70833 9.9987 7.70833ZM8.33203 15.2083C7.98685 15.2083 7.70703 15.4882 7.70703 15.8333C7.70703 16.1785 7.98685 16.4583 8.33203 16.4583H11.6654C12.0105 16.4583 12.2904 16.1785 12.2904 15.8333C12.2904 15.4882 12.0105 15.2083 11.6654 15.2083H8.33203Z" fill="#919191"/>
</svg>
