<svg width="17" height="18" viewBox="0 0 17 18" fill="none" xmlns="http://www.w3.org/2000/svg">
<path fill-rule="evenodd" clip-rule="evenodd" d="M2.70833 7.33717V5.625C2.70833 2.5184 5.22673 0 8.33333 0C11.4399 0 13.9583 2.5184 13.9583 5.625V7.33717C14.8873 7.40655 15.4922 7.58171 15.9344 8.0239C16.6667 8.75613 16.6667 9.93464 16.6667 12.2917C16.6667 14.6487 16.6667 15.8272 15.9344 16.5594C15.2022 17.2917 14.0237 17.2917 11.6667 17.2917H5C2.64298 17.2917 1.46447 17.2917 0.732233 16.5594C0 15.8272 0 14.6487 0 12.2917C0 9.93464 0 8.75613 0.732233 8.0239C1.17443 7.58171 1.77937 7.40655 2.70833 7.33717ZM3.95833 5.625C3.95833 3.20875 5.91709 1.25 8.33333 1.25C10.7496 1.25 12.7083 3.20875 12.7083 5.625V7.29465C12.3892 7.29167 12.0429 7.29167 11.6667 7.29167H5C4.62374 7.29167 4.27751 7.29167 3.95833 7.29465V5.625Z" fill="#919191"/>
</svg>
