<svg width="20" height="20" viewBox="0 0 20 20" fill="none" xmlns="http://www.w3.org/2000/svg">
<path d="M18.3341 10C18.3341 13.1425 18.3347 14.7141 17.3585 15.6904C16.3822 16.6667 14.8106 16.667 11.6681 16.667H8.33409C5.19162 16.667 3.61994 16.6667 2.64367 15.6904C1.66752 14.7141 1.66808 13.1425 1.66808 10C1.66808 9.63172 1.66748 9.2847 1.66906 8.95801H18.3331C18.3347 9.2847 18.3341 9.63172 18.3341 10ZM5.00109 12.708C4.69917 12.708 4.44719 12.9224 4.38878 13.207C4.38043 13.2477 4.37611 13.2899 4.37609 13.333C4.37609 13.3761 4.3805 13.4184 4.38878 13.459C4.44695 13.7439 4.69895 13.958 5.00109 13.958H8.33409C8.67927 13.958 8.95909 13.6782 8.95909 13.333C8.95892 12.988 8.67916 12.708 8.33409 12.708H5.00109ZM10.4181 12.708C10.073 12.708 9.79325 12.988 9.79308 13.333C9.79308 13.6782 10.0729 13.958 10.4181 13.958H11.6681C12.0131 13.9578 12.2931 13.6781 12.2931 13.333C12.2929 12.9881 12.013 12.7082 11.6681 12.708H10.4181ZM11.6681 3.33301C14.8106 3.33301 16.3822 3.33329 17.3585 4.30957C18.0613 5.01247 18.2575 6.02403 18.3126 7.70801H1.68956C1.74468 6.02403 1.94089 5.01247 2.64367 4.30957C3.61994 3.33329 5.19161 3.33301 8.33409 3.33301H11.6681Z" fill="#919191"/>
</svg>
