<svg width="20" height="20" viewBox="0 0 20 20" fill="none" xmlns="http://www.w3.org/2000/svg">
<path fill-rule="evenodd" clip-rule="evenodd" d="M11.668 18.3332H8.33463C5.19194 18.3332 3.62059 18.3332 2.64428 17.3569C1.66797 16.3805 1.66797 14.8092 1.66797 11.6665V8.33317C1.66797 5.19047 1.66797 3.61913 2.64428 2.64281C3.62059 1.6665 5.20021 1.6665 8.35946 1.6665C8.86447 1.6665 9.26913 1.6665 9.60964 1.68039C9.59843 1.747 9.59256 1.81494 9.59233 1.88364L9.58463 4.24564C9.58456 5.1599 9.5845 5.96787 9.67206 6.61914C9.76697 7.32507 9.98489 8.03089 10.5609 8.60695C11.137 9.18301 11.8428 9.40093 12.5488 9.49584C13.2 9.5834 14.008 9.58333 14.9223 9.58326L15.0013 9.58326H18.2991C18.3346 10.0285 18.3346 10.5749 18.3346 11.3023V11.6665C18.3346 14.8092 18.3346 16.3805 17.3583 17.3569C16.382 18.3332 14.8107 18.3332 11.668 18.3332ZM4.3763 12.0832C4.3763 11.738 4.65612 11.4582 5.0013 11.4582H11.668C12.0131 11.4582 12.293 11.738 12.293 12.0832C12.293 12.4283 12.0131 12.7082 11.668 12.7082H5.0013C4.65612 12.7082 4.3763 12.4283 4.3763 12.0832ZM4.3763 14.9998C4.3763 14.6547 4.65612 14.3748 5.0013 14.3748H9.58464C9.92981 14.3748 10.2096 14.6547 10.2096 14.9998C10.2096 15.345 9.92981 15.6248 9.58464 15.6248H5.0013C4.65612 15.6248 4.3763 15.345 4.3763 14.9998Z" fill="#919191"/>
<path d="M16.1277 6.34705L12.8288 3.37796C11.8889 2.53207 11.4189 2.10912 10.8423 1.88786L10.8346 4.16659C10.8346 6.13078 10.8346 7.11287 11.4448 7.72307C12.055 8.33326 13.0371 8.33326 15.0013 8.33326H17.9847C17.6826 7.74641 17.1416 7.25954 16.1277 6.34705Z" fill="#919191"/>
</svg>
