<svg width="17" height="17" viewBox="0 0 17 17" fill="none" xmlns="http://www.w3.org/2000/svg">
<path d="M4.79167 0.625C4.79167 0.279822 4.51184 0 4.16667 0C3.82149 0 3.54167 0.279822 3.54167 0.625V1.94105C2.34222 2.03709 1.55481 2.27281 0.976311 2.85131C0.397812 3.42981 0.162094 4.21722 0.0660477 5.41667H16.6006C16.5046 4.21722 16.2689 3.42981 15.6904 2.85131C15.1119 2.27281 14.3244 2.03709 13.125 1.94105V0.625C13.125 0.279822 12.8452 0 12.5 0C12.1548 0 11.875 0.279822 11.875 0.625V1.88575C11.3206 1.875 10.6992 1.875 10 1.875H6.66667C5.96747 1.875 5.34605 1.875 4.79167 1.88575V0.625Z" fill="#AE71CE"/>
<path fill-rule="evenodd" clip-rule="evenodd" d="M0 8.54167C0 7.84247 0 7.22105 0.0107517 6.66667H16.6559C16.6667 7.22105 16.6667 7.84247 16.6667 8.54167V10.2083C16.6667 13.351 16.6667 14.9224 15.6904 15.8987C14.714 16.875 13.1427 16.875 10 16.875H6.66667C3.52397 16.875 1.95262 16.875 0.976311 15.8987C0 14.9224 0 13.351 0 10.2083V8.54167ZM12.5 10.2083C12.9602 10.2083 13.3333 9.83524 13.3333 9.375C13.3333 8.91476 12.9602 8.54167 12.5 8.54167C12.0398 8.54167 11.6667 8.91476 11.6667 9.375C11.6667 9.83524 12.0398 10.2083 12.5 10.2083ZM12.5 13.5417C12.9602 13.5417 13.3333 13.1686 13.3333 12.7083C13.3333 12.2481 12.9602 11.875 12.5 11.875C12.0398 11.875 11.6667 12.2481 11.6667 12.7083C11.6667 13.1686 12.0398 13.5417 12.5 13.5417ZM9.16667 9.375C9.16667 9.83524 8.79357 10.2083 8.33333 10.2083C7.8731 10.2083 7.5 9.83524 7.5 9.375C7.5 8.91476 7.8731 8.54167 8.33333 8.54167C8.79357 8.54167 9.16667 8.91476 9.16667 9.375ZM9.16667 12.7083C9.16667 13.1686 8.79357 13.5417 8.33333 13.5417C7.8731 13.5417 7.5 13.1686 7.5 12.7083C7.5 12.2481 7.8731 11.875 8.33333 11.875C8.79357 11.875 9.16667 12.2481 9.16667 12.7083ZM4.16667 10.2083C4.6269 10.2083 5 9.83524 5 9.375C5 8.91476 4.6269 8.54167 4.16667 8.54167C3.70643 8.54167 3.33333 8.91476 3.33333 9.375C3.33333 9.83524 3.70643 10.2083 4.16667 10.2083ZM4.16667 13.5417C4.6269 13.5417 5 13.1686 5 12.7083C5 12.2481 4.6269 11.875 4.16667 11.875C3.70643 11.875 3.33333 12.2481 3.33333 12.7083C3.33333 13.1686 3.70643 13.5417 4.16667 13.5417Z" fill="#AE71CE"/>
</svg>
