<svg width="14" height="14" viewBox="0 0 14 14" fill="none" xmlns="http://www.w3.org/2000/svg">
<path d="M3.83331 0.500031C3.83332 0.223889 3.60948 2.19996e-05 3.33333 1.09776e-05C3.05719 -4.44582e-08 2.83332 0.223849 2.83331 0.499991L2.83327 1.55283C1.87371 1.62963 1.24378 1.81818 0.780958 2.28096C0.31814 2.74374 0.129541 3.37366 0.0526652 4.33321L13.2803 4.33374C13.2035 3.37418 13.015 2.74425 12.5522 2.28143C12.0894 1.81861 11.4595 1.63001 10.4999 1.55314L10.5 0.500297C10.5 0.224155 10.2761 0.000288095 10 0.000277073C9.72386 0.000266051 9.49999 0.224115 9.49998 0.500257L9.49994 1.50886C9.05643 1.50024 8.5593 1.50022 7.99994 1.5002L5.33327 1.50009C4.77392 1.50007 4.27678 1.50005 3.83327 1.50863L3.83331 0.500031Z" fill="#00C96F"/>
<path fill-rule="evenodd" clip-rule="evenodd" d="M-0.000272748 6.83321C-0.000250422 6.27385 -0.000230579 5.77672 0.00838847 5.33321L13.3245 5.33374C13.3331 5.77725 13.3331 6.27439 13.3331 6.83374L13.333 8.16708C13.3329 10.6812 13.3329 11.9383 12.5518 12.7193C11.7707 13.5003 10.5136 13.5003 7.99946 13.5002L5.33279 13.5001C2.81864 13.5 1.56156 13.4999 0.780541 12.7189C-0.000476494 11.9378 -0.000426318 10.6807 -0.000325967 8.16654L-0.000272748 6.83321ZM9.99967 8.16694C10.3679 8.16696 10.6664 7.86849 10.6664 7.5003C10.6664 7.13211 10.3679 6.83363 9.99973 6.83361C9.63154 6.8336 9.33305 7.13206 9.33303 7.50025C9.33302 7.86844 9.63148 8.16693 9.99967 8.16694ZM9.99957 10.8336C10.3678 10.8336 10.6662 10.5352 10.6663 10.167C10.6663 9.79878 10.3678 9.50029 9.99962 9.50028C9.63143 9.50026 9.33294 9.79873 9.33293 10.1669C9.33291 10.5351 9.63138 10.8336 9.99957 10.8336ZM7.33303 7.50017C7.33302 7.86836 7.03453 8.16683 6.66634 8.16681C6.29815 8.1668 5.99969 7.86831 5.9997 7.50012C5.99972 7.13193 6.2982 6.83346 6.66639 6.83348C7.03458 6.83349 7.33305 7.13198 7.33303 7.50017ZM7.33293 10.1668C7.33291 10.535 7.03442 10.8335 6.66623 10.8335C6.29804 10.8335 5.99958 10.535 5.99959 10.1668C5.99961 9.79859 6.2981 9.50013 6.66629 9.50014C7.03448 9.50016 7.33294 9.79865 7.33293 10.1668ZM3.33301 8.16668C3.7012 8.16669 3.99969 7.86823 3.9997 7.50004C3.99972 7.13185 3.70125 6.83336 3.33306 6.83334C2.96487 6.83333 2.66638 7.13179 2.66637 7.49998C2.66635 7.86817 2.96482 8.16666 3.33301 8.16668ZM3.3329 10.8333C3.70109 10.8334 3.99958 10.5349 3.99959 10.1667C3.99961 9.79851 3.70114 9.50003 3.33295 9.50001C2.96476 9.5 2.66628 9.79846 2.66626 10.1667C2.66625 10.5348 2.96471 10.8333 3.3329 10.8333Z" fill="#00C96F"/>
</svg>
