<svg width="60" height="20" viewBox="0 0 60 20" fill="none" xmlns="http://www.w3.org/2000/svg">
<g clip-path="url(#clip0_312_25171)">
<path d="M12.5694 4.16694C11.8911 4.16694 11.3498 3.96573 10.9454 3.56331C10.5411 3.14792 10.3389 2.65464 10.3389 2.08347C10.3389 1.5123 10.5345 1.02551 10.9258 0.623088C11.3302 0.207698 11.8781 0 12.5694 0C13.2608 0 13.8021 0.207698 14.1934 0.623088C14.5977 1.02551 14.8 1.5123 14.8 2.08347C14.8 2.65464 14.5977 3.14792 14.1934 3.56331C13.8021 3.96573 13.2608 4.16694 12.5694 4.16694Z" fill="#00B004"/>
<path d="M38.1629 14.9346V12.4034C39.4151 11.5985 40.4587 10.7807 41.2934 9.94992C42.1413 9.11909 42.7805 8.32075 43.211 7.55489C43.6414 6.78899 43.8566 6.12045 43.8566 5.54928C43.8566 4.6536 43.4131 4.20576 42.5262 4.20576C42.0174 4.20576 41.5804 4.36802 41.2152 4.69255C40.863 5.00411 40.6087 5.38704 40.4522 5.84138L37.7324 4.34205C37.9672 3.66704 38.339 3.0764 38.8478 2.57013C39.3564 2.05089 39.9695 1.64847 40.687 1.36289C41.4043 1.06432 42.1804 0.915039 43.0153 0.915039C43.9806 0.915039 44.8089 1.09678 45.5001 1.46024C46.1914 1.82372 46.7197 2.32349 47.085 2.95957C47.4502 3.58265 47.6263 4.29662 47.6133 5.10143C47.6133 6.24377 47.2612 7.3926 46.5567 8.54792C45.8523 9.70328 44.6914 10.8326 43.074 11.936H47.9263V14.9346H38.1629Z" fill="#00B004"/>
<path d="M54.1607 14.9346V11.975H48.3496V9.42415L55.1582 1.0708H57.7997V9.19049H59.7568V11.975H57.7997V14.9346H54.1607ZM51.8324 9.19049H54.1607V6.34761L51.8324 9.19049Z" fill="#00B004"/>
<path d="M5.52698 15.1477C4.4443 15.1477 3.50514 14.9465 2.70945 14.5442C1.92681 14.1287 1.32027 13.5446 0.88982 12.7916C0.459366 12.0388 0.244141 11.156 0.244141 10.1435C0.244141 9.09207 0.478933 8.16393 0.948517 7.3591C1.4181 6.55427 2.06377 5.92466 2.88554 5.47032C3.72036 5.01597 4.67909 4.78882 5.76176 4.78882C6.71395 4.78882 7.54224 4.97056 8.24663 5.33402C8.95098 5.69749 9.48581 6.23622 9.85102 6.95017L7.30746 8.85841C7.05961 8.23529 6.57698 7.92378 5.85956 7.92378C5.29868 7.92378 4.84866 8.12495 4.50952 8.52739C4.17038 8.9168 4.00081 9.43607 4.00081 10.0851C4.00081 10.6952 4.15081 11.1691 4.45082 11.5066C4.75083 11.8441 5.18127 12.0128 5.7422 12.0128C6.45961 12.0128 7.00093 11.6817 7.36615 11.0198L9.8119 13.0253C9.40751 13.7263 8.8401 14.2586 8.10966 14.6221C7.37922 14.9725 6.51829 15.1477 5.52698 15.1477Z" fill="#1B1B1B"/>
<path d="M14.4098 4.92529V14.9337H10.7705V4.92529H14.4098Z" fill="#1B1B1B"/>
<path d="M21.4732 15.1478C20.1427 15.1478 19.0992 14.7908 18.3426 14.0769C17.586 13.3499 17.2143 12.4023 17.2273 11.234L17.286 7.90439H15.6816V4.92521H17.3447L17.3838 2.90015H20.984L20.9449 4.92521H23.958V7.90439H20.9057L20.8666 10.8056C20.8536 11.2081 20.9579 11.5196 21.1797 11.7403C21.4144 11.948 21.734 12.0518 22.1383 12.0518C22.4123 12.0518 22.6863 12.0193 22.9601 11.9545C23.2341 11.8765 23.5146 11.7403 23.8015 11.5456L24.819 14.2716C24.4928 14.5442 24.0428 14.7583 23.4689 14.9142C22.895 15.0699 22.2296 15.1478 21.4732 15.1478Z" fill="#1B1B1B"/>
<path d="M29.3238 19.0228C28.9063 19.0228 28.4498 18.9903 27.9542 18.9254C27.4716 18.8735 27.002 18.7826 26.5455 18.6528C26.1019 18.523 25.7302 18.3607 25.4302 18.166L26.291 15.0895C26.7868 15.3361 27.2889 15.5243 27.7976 15.6542C28.3193 15.797 28.8998 15.8683 29.539 15.8683C30.5695 15.8683 31.3065 15.6477 31.7499 15.2064C32.1934 14.7649 32.4544 14.077 32.5326 13.1424L32.5717 12.6556C32.1804 13.2787 31.6913 13.7719 31.1043 14.1353C30.5173 14.4989 29.8455 14.6806 29.089 14.6806C27.8237 14.6806 26.8911 14.2652 26.291 13.4344C25.6911 12.6037 25.3976 11.4548 25.4106 9.98793L25.4302 4.92529H29.0694L29.0498 9.75427C29.0498 10.2735 29.1476 10.663 29.3433 10.9226C29.5521 11.1822 29.8391 11.312 30.2042 11.312C30.6608 11.312 31.0456 11.1238 31.3586 10.7473C31.6848 10.3579 31.9391 9.70232 32.1217 8.78066C32.3174 7.84602 32.4282 6.5609 32.4544 4.92529H35.9763V12.753C35.9763 14.2068 35.6958 15.3946 35.1349 16.3163C34.5871 17.2379 33.8109 17.9194 32.8065 18.3607C31.8152 18.8021 30.6543 19.0228 29.3238 19.0228Z" fill="#1B1B1B"/>
</g>
<defs>
<clipPath id="clip0_312_25171">
<rect width="60" height="19.0244" fill="white"/>
</clipPath>
</defs>
</svg>
