<svg width="20" height="20" viewBox="0 0 20 20" fill="none" xmlns="http://www.w3.org/2000/svg">
<path fill-rule="evenodd" clip-rule="evenodd" d="M11.667 18.3333H8.33366C5.19096 18.3333 3.61961 18.3333 2.6433 17.357C1.66699 16.3807 1.66699 14.8093 1.66699 11.6666V8.33329C1.66699 5.1906 1.66699 3.61925 2.6433 2.64294C3.61961 1.66663 5.19924 1.66663 8.35849 1.66663C8.86349 1.66663 9.26816 1.66663 9.60866 1.68051C9.59746 1.74712 9.59158 1.81507 9.59135 1.88376L9.58365 4.24577C9.58358 5.16002 9.58352 5.96799 9.67108 6.61926C9.76599 7.32519 9.98391 8.03101 10.56 8.60707C11.136 9.18313 11.8419 9.40105 12.5478 9.49596C13.199 9.58352 14.007 9.58346 14.9213 9.58339L15.0003 9.58338H18.2982C18.3337 10.0286 18.3337 10.575 18.3337 11.3024V11.6666C18.3337 14.8093 18.3337 16.3807 17.3573 17.357C16.381 18.3333 14.8097 18.3333 11.667 18.3333Z" fill="#783999"/>
<path d="M16.1268 6.34717L12.8278 3.37809C11.8879 2.53219 11.418 2.10925 10.8413 1.88798L10.8337 4.16671C10.8337 6.1309 10.8337 7.11299 11.4439 7.72319C12.054 8.33338 13.0361 8.33338 15.0003 8.33338H17.9837C17.6816 7.74653 17.1406 7.25966 16.1268 6.34717Z" fill="#783999"/>
</svg>
