<svg width="85" height="71" viewBox="0 0 85 71" fill="none" xmlns="http://www.w3.org/2000/svg">
<path fill-rule="evenodd" clip-rule="evenodd" d="M73.9505 43.1001C75.4598 40.6288 76.9702 38.1876 78.4246 35.6687C79.6553 33.5344 79.2507 30.7417 77.5258 29.4369C75.8009 28.1322 73.4036 28.8072 72.1729 30.9414C70.761 33.3882 69.2932 35.7571 67.8282 38.1601C66.5481 40.2581 66.8826 43.066 68.5733 44.4317C70.2621 45.7937 72.6704 45.1982 73.9505 43.1001Z" fill="#E8D5F2" fill-opacity="0.24"/>
<path fill-rule="evenodd" clip-rule="evenodd" d="M54.0492 38.4637C53.5047 29.1568 52.5601 19.9218 51.8469 10.6489C51.6551 8.14027 49.756 6.43622 47.6107 6.84273C45.4673 7.25312 43.8849 9.61515 44.0767 12.1237C44.7826 21.3339 45.727 30.5011 46.2642 39.7452C46.4124 42.2594 48.2763 44.0154 50.4231 43.6601C52.5719 43.3086 54.1974 40.9779 54.0492 38.4637Z" fill="#E8D5F2" fill-opacity="0.24"/>
<path fill-rule="evenodd" clip-rule="evenodd" d="M28.7418 51.7535C24.5986 45.8381 20.2976 40.0586 16.2177 34.0814C14.9067 32.1674 12.44 31.9776 10.7098 33.662C8.98152 35.3502 8.64171 38.2754 9.95118 40.1958C14.0546 46.1927 18.3688 51.9994 22.5305 57.9435C23.8622 59.8424 26.3314 59.9988 28.0449 58.2897C29.7603 56.5845 30.0735 53.6525 28.7418 51.7535Z" fill="#E8D5F2" fill-opacity="0.24"/>
</svg>
