<svg width="24" height="24" viewBox="0 0 24 24" fill="none" xmlns="http://www.w3.org/2000/svg">
<path d="M15.7128 16.7726L7.22748 8.28728C6.93757 7.99737 6.93757 7.51653 7.22748 7.22662C7.5174 6.93671 7.99823 6.93671 8.28814 7.22662L16.7734 15.7119C17.0633 16.0018 17.0633 16.4826 16.7734 16.7726C16.4835 17.0625 16.0027 17.0625 15.7128 16.7726Z" fill="#783999"/>
<path d="M7.22658 16.7735C6.93666 16.4836 6.93666 16.0028 7.22658 15.7129L15.7119 7.2276C16.0018 6.93768 16.4826 6.93768 16.7725 7.2276C17.0624 7.51751 17.0624 7.99834 16.7725 8.28826L8.28724 16.7735C7.99732 17.0635 7.51649 17.0635 7.22658 16.7735Z" fill="#1C274C"/>
</svg>
