<svg width="34" height="34" viewBox="0 0 34 34" fill="none" xmlns="http://www.w3.org/2000/svg">
<rect width="33.5714" height="33.5714" rx="16.7857" fill="#262626"/>
<path d="M13.2895 16.7855C13.2895 14.8542 14.8547 13.2882 16.786 13.2882C18.7173 13.2882 20.2833 14.8542 20.2833 16.7855C20.2833 18.7168 18.7173 20.2828 16.786 20.2828C14.8547 20.2828 13.2895 18.7168 13.2895 16.7855ZM11.399 16.7855C11.399 19.7608 13.8107 22.1725 16.786 22.1725C19.7613 22.1725 22.173 19.7608 22.173 16.7855C22.173 13.8102 19.7613 11.3985 16.786 11.3985C13.8107 11.3985 11.399 13.8102 11.399 16.7855ZM21.1274 11.1849C21.1273 11.4339 21.201 11.6773 21.3393 11.8844C21.4775 12.0915 21.6741 12.2529 21.9041 12.3483C22.1341 12.4437 22.3872 12.4687 22.6314 12.4202C22.8756 12.3717 23.1 12.2519 23.2761 12.0759C23.4523 11.8999 23.5723 11.6757 23.6209 11.4315C23.6696 11.1873 23.6448 10.9341 23.5496 10.7041C23.4544 10.474 23.2931 10.2773 23.0861 10.1389C22.8792 10.0005 22.6358 9.92654 22.3868 9.92644H22.3863C22.0525 9.9266 21.7325 10.0592 21.4964 10.2952C21.2604 10.5311 21.1277 10.8511 21.1274 11.1849ZM12.5476 25.325C11.5248 25.2784 10.9688 25.108 10.5994 24.9641C10.1096 24.7734 9.76008 24.5463 9.39264 24.1794C9.0252 23.8124 8.79776 23.4633 8.60791 22.9735C8.46389 22.6042 8.29351 22.0481 8.24702 21.0252C8.19616 19.9194 8.186 19.5872 8.186 16.7856C8.186 13.984 8.197 13.6527 8.24702 12.5459C8.2936 11.5231 8.46523 10.9681 8.60791 10.5977C8.7986 10.1079 9.02571 9.75842 9.39264 9.39098C9.75958 9.02354 10.1087 8.79609 10.5994 8.60625C10.9687 8.46222 11.5248 8.29185 12.5476 8.24535C13.6534 8.19449 13.9856 8.18434 16.786 8.18434C19.5864 8.18434 19.9189 8.19533 21.0256 8.24535C22.0485 8.29193 22.6035 8.46357 22.9739 8.60625C23.4637 8.79609 23.8132 9.02404 24.1806 9.39098C24.548 9.75791 24.7747 10.1079 24.9653 10.5977C25.1094 10.967 25.2797 11.5231 25.3262 12.5459C25.3771 13.6527 25.3872 13.984 25.3872 16.7856C25.3872 19.5872 25.3771 19.9185 25.3262 21.0252C25.2796 22.0481 25.1084 22.604 24.9653 22.9735C24.7747 23.4633 24.5475 23.8128 24.1806 24.1794C23.8137 24.546 23.4637 24.7734 22.9739 24.9641C22.6046 25.1081 22.0485 25.2785 21.0256 25.325C19.9198 25.3758 19.5876 25.386 16.786 25.386C13.9844 25.386 13.6531 25.3758 12.5476 25.325ZM12.4607 6.35797C11.3439 6.40883 10.5807 6.58592 9.91426 6.84526C9.22403 7.11307 8.63972 7.47237 8.05583 8.05534C7.47194 8.63831 7.11356 9.22354 6.84575 9.91377C6.58641 10.5807 6.40932 11.3434 6.35846 12.4602C6.30676 13.5788 6.29492 13.9365 6.29492 16.7855C6.29492 19.6345 6.30676 19.9922 6.35846 21.1108C6.40932 22.2277 6.58641 22.9903 6.84575 23.6572C7.11356 24.347 7.47202 24.933 8.05583 25.5157C8.63963 26.0984 9.22403 26.4572 9.91426 26.7258C10.582 26.9851 11.3439 27.1622 12.4607 27.213C13.5799 27.2639 13.937 27.2766 16.786 27.2766C19.635 27.2766 19.9927 27.2647 21.1113 27.213C22.2282 27.1622 22.9908 26.9851 23.6577 26.7258C24.3475 26.4572 24.9323 26.0986 25.5162 25.5157C26.1 24.9327 26.4577 24.347 26.7262 23.6572C26.9856 22.9903 27.1635 22.2276 27.2135 21.1108C27.2644 19.9913 27.2762 19.6345 27.2762 16.7855C27.2762 13.9365 27.2644 13.5788 27.2135 12.4602C27.1627 11.3433 26.9856 10.5802 26.7262 9.91377C26.4577 9.22396 26.0991 8.63923 25.5162 8.05534C24.9332 7.47145 24.3475 7.11307 23.6586 6.84526C22.9908 6.58592 22.2281 6.40799 21.1121 6.35797C19.9935 6.30711 19.6359 6.29443 16.7868 6.29443C13.9378 6.29443 13.5799 6.30627 12.4607 6.35797Z" fill="white"/>
</svg>
