<svg width="24" height="30" viewBox="0 0 24 30" fill="none" xmlns="http://www.w3.org/2000/svg">
<path fill-rule="evenodd" clip-rule="evenodd" d="M11.809 4.25496e-07H11.6577C9.19334 -2.07672e-05 7.2414 -3.755e-05 5.71377 0.208929C4.14161 0.423988 2.86911 0.877109 1.86559 1.89813C0.862072 2.91915 0.416719 4.21384 0.205347 5.81343C-3.69063e-05 7.3677 -2.04112e-05 9.35367 4.18201e-07 11.861V17.4723C-2.04112e-05 19.9796 -3.69063e-05 21.9656 0.205347 23.5199C0.416719 25.1195 0.862072 26.4142 1.86559 27.4352C2.86911 28.4562 4.14161 28.9093 5.71377 29.1244C7.24139 29.3334 9.19331 29.3334 11.6576 29.3333H11.809C14.2733 29.3334 16.2253 29.3334 17.7529 29.1244C19.3251 28.9093 20.5976 28.4562 21.6011 27.4352C22.6046 26.4142 23.0499 25.1195 23.2613 23.5199C23.4667 21.9656 23.4667 19.9797 23.4667 17.4724V11.861C23.4667 9.35372 23.4667 7.36769 23.2613 5.81343C23.0499 4.21384 22.6046 2.91915 21.6011 1.89813C20.5976 0.877109 19.3251 0.423988 17.7529 0.208929C16.2253 -3.755e-05 14.2733 -2.07672e-05 11.809 4.25496e-07ZM6.70476 24.2171C6.70476 23.6519 7.15504 23.1938 7.71048 23.1938H15.7562C16.3116 23.1938 16.7619 23.6519 16.7619 24.2171C16.7619 24.7822 16.3116 25.2403 15.7562 25.2403H7.71048C7.15504 25.2403 6.70476 24.7822 6.70476 24.2171Z" fill="#783999"/>
</svg>
