<svg width="30" height="37" viewBox="0 0 30 37" fill="none" xmlns="http://www.w3.org/2000/svg">
<path fill-rule="evenodd" clip-rule="evenodd" d="M14.7613 5.3187e-07H14.5721C11.4917 -2.5959e-05 9.05175 -4.69375e-05 7.14221 0.261161C5.17701 0.529984 3.58639 1.09639 2.33199 2.37266C1.07759 3.64894 0.520899 5.2673 0.256684 7.26678C-4.61329e-05 9.20963 -2.5514e-05 11.6921 5.22751e-07 14.8262V21.8404C-2.5514e-05 24.9746 -4.61329e-05 27.457 0.256684 29.3999C0.520899 31.3994 1.07759 33.0177 2.33199 34.294C3.58639 35.5703 5.17701 36.1367 7.14221 36.4055C9.05174 36.6667 11.4916 36.6667 14.572 36.6667H14.7612C17.8416 36.6667 20.2816 36.6667 22.1911 36.4055C24.1563 36.1367 25.7469 35.5703 27.0013 34.294C28.2557 33.0177 28.8124 31.3994 29.0766 29.3999C29.3334 27.4571 29.3334 24.9746 29.3333 21.8405V14.8263C29.3334 11.6921 29.3334 9.20962 29.0766 7.26678C28.8124 5.26731 28.2557 3.64894 27.0013 2.37266C25.7469 1.09639 24.1563 0.529984 22.1911 0.261161C20.2816 -4.69375e-05 17.8417 -2.5959e-05 14.7613 5.3187e-07ZM8.38095 30.2713C8.38095 29.5649 8.9438 28.9922 9.6381 28.9922H19.6952C20.3895 28.9922 20.9524 29.5649 20.9524 30.2713C20.9524 30.9777 20.3895 31.5504 19.6952 31.5504H9.6381C8.9438 31.5504 8.38095 30.9777 8.38095 30.2713Z" fill="#783999"/>
</svg>
