<svg width="34" height="34" viewBox="0 0 34 34" fill="none" xmlns="http://www.w3.org/2000/svg">
<rect width="33.5714" height="33.5714" rx="16.7857" fill="#0077B5"/>
<path d="M26.1056 24.7069C25.004 24.6807 23.9287 24.6807 22.8271 24.7069C22.5911 24.7069 22.5386 24.6545 22.5386 24.4184C22.5386 22.4776 22.5386 20.5105 22.5386 18.5697C22.5386 18.1238 22.5124 17.6779 22.3813 17.2583C21.9879 15.8944 20.4142 15.3961 19.2864 16.3141C18.6832 16.7862 18.4471 17.4419 18.4471 18.2287C18.4471 20.0646 18.4471 21.9006 18.4471 23.7365C18.4471 23.9726 18.4209 24.2086 18.4471 24.4709C18.4734 24.6807 18.3684 24.7332 18.1848 24.7069C17.0571 24.7069 15.9555 24.7069 14.8277 24.7069C14.6179 24.7069 14.5654 24.6545 14.5654 24.4447C14.5917 22.7923 14.5917 21.14 14.5917 19.4614C14.5917 17.4156 14.5917 15.3699 14.5654 13.3503C14.5654 13.1143 14.6179 13.0618 14.8277 13.0618C15.9555 13.0618 17.0571 13.0618 18.1848 13.0618C18.3947 13.0618 18.4471 13.1143 18.4471 13.3241C18.4471 13.7438 18.4471 14.1634 18.4471 14.6617C18.5258 14.583 18.552 14.5568 18.5783 14.5306C19.6011 13.0356 21.0437 12.616 22.7485 12.8782C24.7155 13.193 25.9745 14.5568 26.2892 16.655C26.3679 17.1534 26.3941 17.6517 26.3941 18.15C26.3941 20.2482 26.3941 22.3202 26.3941 24.4184C26.3941 24.6282 26.3417 24.7069 26.1056 24.7069Z" fill="white"/>
<path d="M12.4678 18.8841C12.4678 20.72 12.4678 22.5559 12.4678 24.3919C12.4678 24.6279 12.4153 24.7066 12.1793 24.7066C11.0777 24.6804 9.97614 24.7066 8.87458 24.7066C8.66476 24.7066 8.6123 24.6542 8.6123 24.4443C8.6123 20.7462 8.6123 17.0219 8.6123 13.3238C8.6123 13.1402 8.66476 13.0615 8.87458 13.0615C10.0024 13.0615 11.1302 13.0615 12.258 13.0615C12.494 13.0615 12.5202 13.1402 12.5202 13.35C12.4678 15.186 12.4678 17.0219 12.4678 18.8841Z" fill="white"/>
<path d="M12.6509 10.0192C12.3886 11.0684 11.3133 11.6716 10.0806 11.4618C8.76923 11.2519 8.03485 9.96679 8.50695 8.70786C8.82168 7.92103 9.58228 7.44893 10.5527 7.47516C12.0215 7.44893 12.9919 8.62918 12.6509 10.0192Z" fill="white"/>
</svg>
