<svg width="24" height="21" viewBox="0 0 24 21" fill="none" xmlns="http://www.w3.org/2000/svg">
<path fill-rule="evenodd" clip-rule="evenodd" d="M0 15.3148V2.3114C0 1.0302 1.03402 -0.0105928 2.3128 0.0680015C3.4519 0.138011 4.79907 0.276394 5.83333 0.549316C7.05741 0.872326 8.51213 1.56031 9.66263 2.16867C10.0209 2.35812 10.4019 2.48953 10.7919 2.5636V20.272C10.4384 20.1941 10.0935 20.0684 9.76782 19.8948C8.60176 19.2732 7.09503 18.5525 5.83333 18.2196C4.81051 17.9496 3.48166 17.8113 2.35067 17.7406C1.05705 17.6597 0 16.611 0 15.3148ZM3.71243 6.13176C3.24361 6.01455 2.76854 6.29959 2.65133 6.76841C2.53413 7.23723 2.81917 7.7123 3.28799 7.82951L7.95466 8.99617C8.42348 9.11338 8.89854 8.82834 9.01575 8.35952C9.13295 7.8907 8.84791 7.41563 8.37909 7.29842L3.71243 6.13176ZM3.71243 10.7984C3.24361 10.6812 2.76854 10.9663 2.65133 11.4351C2.53413 11.9039 2.81917 12.379 3.28799 12.4962L7.95466 13.6628C8.42348 13.78 8.89854 13.495 9.01575 13.0262C9.13295 12.5574 8.84791 12.0823 8.37909 11.9651L3.71243 10.7984Z" fill="#783999"/>
<path fill-rule="evenodd" clip-rule="evenodd" d="M12.5419 20.2719C12.8952 20.194 13.24 20.0683 13.5655 19.8948C14.7316 19.2732 16.2383 18.5525 17.5 18.2196C18.5228 17.9496 19.8517 17.8113 20.9827 17.7406C22.2763 17.6597 23.3333 16.611 23.3333 15.3148V2.23602C23.3333 0.984835 22.3461 -0.0422204 21.0956 0.00133626C19.779 0.0472006 18.1381 0.183664 16.9167 0.549316C15.8578 0.866322 14.6245 1.50218 13.6195 2.08384C13.2795 2.28062 12.9161 2.42515 12.5419 2.51681V20.2719ZM20.0458 7.82951C20.5146 7.7123 20.7996 7.23723 20.6824 6.76841C20.5652 6.29959 20.0901 6.01455 19.6213 6.13176L14.9547 7.29842C14.4858 7.41563 14.2008 7.8907 14.318 8.35952C14.4352 8.82834 14.9103 9.11338 15.3791 8.99617L20.0458 7.82951ZM20.0458 12.4962C20.5146 12.379 20.7996 11.9039 20.6824 11.4351C20.5652 10.9663 20.0901 10.6812 19.6213 10.7984L14.9547 11.9651C14.4858 12.0823 14.2008 12.5574 14.318 13.0262C14.4352 13.495 14.9103 13.78 15.3791 13.6628L20.0458 12.4962Z" fill="#783999"/>
</svg>
