<svg width="24" height="24" viewBox="0 0 24 24" fill="none" xmlns="http://www.w3.org/2000/svg">
<path fill-rule="evenodd" clip-rule="evenodd" d="M11.6667 23.3333C18.11 23.3333 23.3333 18.11 23.3333 11.6667C23.3333 5.22334 18.11 0 11.6667 0C5.22334 0 0 5.22334 0 11.6667C0 18.11 5.22334 23.3333 11.6667 23.3333ZM11.6669 8.16667C12.9556 8.16667 14.0002 7.122 14.0002 5.83333C14.0002 4.54467 12.9556 3.5 11.6669 3.5C10.3782 3.5 9.33356 4.54467 9.33356 5.83333C9.33356 7.122 10.3782 8.16667 11.6669 8.16667ZM5.00832 8.5277C4.56346 8.33916 4.04997 8.54689 3.86133 8.99173C3.67267 9.43663 3.88039 9.95024 4.32529 10.1389L4.32683 10.1396L4.32988 10.1408L4.34044 10.1453L4.37894 10.1613C4.41217 10.1751 4.46032 10.1949 4.52209 10.2198C4.64559 10.2697 4.82369 10.3403 5.04581 10.4247C5.48953 10.5933 6.11163 10.818 6.8269 11.043C7.98057 11.4059 9.43604 11.789 10.7919 11.9153V13.3609C10.7919 13.8643 10.6472 14.357 10.375 14.7804L7.43086 19.3602C7.16954 19.7667 7.28723 20.308 7.69373 20.5694C8.10023 20.8307 8.6416 20.713 8.90292 20.3065L11.6669 16.007L14.4309 20.3065C14.6922 20.713 15.2336 20.8307 15.6401 20.5694C16.0466 20.308 16.1642 19.7667 15.9029 19.3602L12.9588 14.7804C12.6866 14.357 12.5419 13.8643 12.5419 13.3609V11.9153C13.8977 11.789 15.3532 11.4059 16.5069 11.043C17.2222 10.818 17.8443 10.5933 18.288 10.4247C18.5101 10.3403 18.6882 10.2697 18.8117 10.2198C18.8735 10.1949 18.9216 10.1751 18.9548 10.1613L18.9933 10.1453L19.0039 10.1408L19.007 10.1396L19.0083 10.139C19.4532 9.95034 19.6611 9.43663 19.4725 8.99173C19.2838 8.54688 18.7702 8.33922 18.3253 8.52777L18.3166 8.53143L18.2848 8.54466C18.2562 8.55652 18.2129 8.57433 18.1562 8.59723C18.0428 8.64304 17.8761 8.70916 17.6664 8.78883C17.2466 8.94835 16.6574 9.16115 15.9818 9.37365C14.6072 9.80603 12.9633 10.2083 11.6669 10.2083C10.3704 10.2083 8.72656 9.80603 7.352 9.37365C6.67642 9.16115 6.08724 8.94835 5.66739 8.78883C5.45773 8.70916 5.29098 8.64304 5.17757 8.59723C5.12088 8.57433 5.07757 8.55652 5.04894 8.54466L5.0172 8.53143L5.00991 8.52837L5.00832 8.5277Z" fill="#783999"/>
</svg>
