<svg width="19" height="24" viewBox="0 0 19 24" fill="none" xmlns="http://www.w3.org/2000/svg">
<path fill-rule="evenodd" clip-rule="evenodd" d="M9.39352 3.38463e-07H9.27316C7.31288 -1.65194e-05 5.7602 -2.98693e-05 4.54504 0.166194C3.29446 0.337263 2.28225 0.6977 1.48399 1.50988C0.685739 2.32205 0.331481 3.35192 0.163345 4.62432C-2.93573e-05 5.86067 -1.62362e-05 7.44042 3.3266e-07 9.43488V13.8984C-1.62362e-05 15.8929 -2.93573e-05 17.4727 0.163345 18.709C0.331481 19.9814 0.685739 21.0113 1.48399 21.8235C2.28225 22.6356 3.29446 22.9961 4.54504 23.1671C5.7602 23.3334 7.31286 23.3334 9.27311 23.3333H9.39351C11.3538 23.3334 12.9065 23.3334 14.1216 23.1671C15.3722 22.9961 16.3844 22.6356 17.1827 21.8235C17.9809 21.0113 18.3352 19.9814 18.5033 18.709C18.6667 17.4727 18.6667 15.8929 18.6667 13.8985V9.4349C18.6667 7.44046 18.6667 5.86067 18.5033 4.62432C18.3352 3.35192 17.9809 2.32205 17.1827 1.50988C16.3844 0.6977 15.3722 0.337263 14.1216 0.166194C12.9065 -2.98693e-05 11.3538 -1.65194e-05 9.39352 3.38463e-07ZM5.33333 19.2636C5.33333 18.814 5.69151 18.4496 6.13333 18.4496H12.5333C12.9752 18.4496 13.3333 18.814 13.3333 19.2636C13.3333 19.7131 12.9752 20.0775 12.5333 20.0775H6.13333C5.69151 20.0775 5.33333 19.7131 5.33333 19.2636Z" fill="#783999"/>
</svg>
