<svg width="24" height="19" viewBox="0 0 24 19" fill="none" xmlns="http://www.w3.org/2000/svg">
<path d="M23.334 9.33301C23.334 13.7328 23.3336 15.933 21.9668 17.2998C20.5999 18.6665 18.3996 18.666 14 18.666H9.33398C4.93438 18.666 2.73403 18.6665 1.36719 17.2998C0.00035236 15.933 0 13.7328 0 9.33301C0 8.81754 0.000731733 8.33227 0.00292969 7.875H23.3311C23.3333 8.33227 23.334 8.81754 23.334 9.33301ZM4.66699 13.125C4.63667 13.125 4.60668 13.1259 4.57715 13.1289C4.13609 13.1739 3.79199 13.5471 3.79199 14C3.79216 14.4528 4.13621 14.8251 4.57715 14.8701C4.60669 14.8731 4.63666 14.875 4.66699 14.875H9.33398C9.81698 14.8748 10.2088 14.483 10.209 14C10.209 13.5169 9.81708 13.1252 9.33398 13.125H4.66699ZM12.25 13.125C11.7669 13.1252 11.375 13.5169 11.375 14C11.3752 14.483 11.767 14.8748 12.25 14.875H14C14.4831 14.875 14.8748 14.4831 14.875 14C14.875 13.5168 14.4832 13.125 14 13.125H12.25ZM14 0C18.3996 0 20.5999 -0.000461024 21.9668 1.36621C22.9509 2.35034 23.2266 3.76696 23.3037 6.125H0.0302734C0.107425 3.76696 0.383057 2.35034 1.36719 1.36621C2.73403 -0.000461411 4.93438 0 9.33398 0H14Z" fill="#783999"/>
</svg>
