<svg width="40" height="40" viewBox="0 0 40 40" fill="none" xmlns="http://www.w3.org/2000/svg">
<path d="M7.27704 35.3908V33.3308C7.28912 33.1575 7.26412 32.9837 7.20372 32.8209C7.14331 32.658 7.04888 32.5099 6.92672 32.3865C6.80456 32.263 6.65748 32.167 6.4953 32.1049C6.33311 32.0428 6.15955 32.016 5.98617 32.0262C5.75927 32.0114 5.53255 32.0578 5.32966 32.1604C5.12676 32.2631 4.95512 32.4183 4.83261 32.6098C4.72096 32.424 4.56127 32.2717 4.37034 32.169C4.17941 32.0663 3.96432 32.0169 3.74771 32.0262C3.5589 32.0167 3.37088 32.0567 3.20227 32.1422C3.03366 32.2277 2.89031 32.3558 2.78641 32.5137V32.1086H2.07227V35.3908H2.79324V33.5711C2.77765 33.4588 2.78713 33.3445 2.82098 33.2363C2.85483 33.1281 2.91222 33.0288 2.98903 32.9454C3.06583 32.862 3.16015 32.7967 3.2652 32.7541C3.37026 32.7116 3.48345 32.6928 3.59663 32.6991C4.07041 32.6991 4.31077 33.0081 4.31077 33.5643V35.3908H5.03174V33.5711C5.01733 33.4591 5.02762 33.3452 5.0619 33.2375C5.09618 33.1298 5.15363 33.031 5.23019 32.9479C5.30675 32.8648 5.40059 32.7994 5.50509 32.7565C5.6096 32.7135 5.72224 32.6939 5.83512 32.6991C6.32261 32.6991 6.55606 33.0081 6.55606 33.5643V35.3908H7.27704ZM17.9475 32.1086H16.7802V31.113H16.0593V32.1086H15.3932V32.7609H16.0593V34.2578C16.0593 35.0199 16.3545 35.4732 17.1991 35.4732C17.5146 35.4741 17.824 35.3861 18.0917 35.2191L17.8857 34.608C17.6942 34.7222 17.4769 34.786 17.254 34.7934C16.8969 34.7934 16.7802 34.5736 16.7802 34.2441V32.7609H17.9475V32.1086ZM24.0381 32.0262C23.864 32.0211 23.6917 32.063 23.5394 32.1476C23.3872 32.2322 23.2605 32.3563 23.1729 32.5069V32.1086H22.4656V35.3908H23.1798V33.5505C23.1798 33.0081 23.4132 32.706 23.8802 32.706C24.0329 32.7039 24.1846 32.7319 24.3265 32.7884L24.5462 32.1155C24.3831 32.0571 24.2113 32.0269 24.0381 32.0262ZM14.8302 32.3695C14.426 32.1292 13.9612 32.01 13.4912 32.0262C12.6603 32.0262 12.1248 32.4244 12.1248 33.0767C12.1248 33.6124 12.523 33.942 13.2577 34.0449L13.5942 34.093C13.9855 34.1479 14.171 34.2509 14.171 34.4363C14.171 34.6903 13.91 34.8346 13.4225 34.8346C13.0304 34.8459 12.6458 34.7249 12.3307 34.4912L11.9943 35.0474C12.4103 35.3379 12.9085 35.4872 13.4157 35.4732C14.3632 35.4732 14.9125 35.0268 14.9125 34.402C14.9125 33.8252 14.48 33.5231 13.7659 33.42L13.4294 33.372C13.1204 33.3308 12.8732 33.2691 12.8732 33.0493C12.8732 32.809 13.1066 32.6648 13.4981 32.6648C13.8575 32.6702 14.2096 32.7671 14.5212 32.9463L14.8302 32.3695ZM33.9601 32.0262C33.786 32.0211 33.6137 32.063 33.4614 32.1476C33.3092 32.2322 33.1825 32.3563 33.0949 32.5069V32.1086H32.3877V35.3908H33.1018V33.5505C33.1018 33.0081 33.3352 32.706 33.8021 32.706C33.9549 32.7039 34.1066 32.7319 34.2485 32.7884L34.4682 32.1155C34.3051 32.0571 34.1333 32.0269 33.9601 32.0262ZM24.759 33.7496C24.7495 33.9808 24.7885 34.2115 24.8736 34.4267C24.9586 34.642 25.0877 34.837 25.2526 34.9994C25.4175 35.1617 25.6146 35.2878 25.8312 35.3694C26.0477 35.451 26.279 35.4863 26.51 35.4732C26.9387 35.4947 27.36 35.3551 27.691 35.0818L27.3477 34.505C27.1008 34.6932 26.7998 34.7967 26.4894 34.8002C26.2218 34.784 25.9705 34.6662 25.7867 34.471C25.603 34.2758 25.5007 34.0178 25.5007 33.7497C25.5007 33.4816 25.603 33.2236 25.7867 33.0283C25.9705 32.8331 26.2218 32.7154 26.4894 32.6991C26.7998 32.7026 27.1008 32.8062 27.3477 32.9944L27.691 32.4176C27.36 32.1443 26.9387 32.0047 26.51 32.0262C26.279 32.0131 26.0478 32.0484 25.8312 32.13C25.6147 32.2116 25.4176 32.3376 25.2527 32.4999C25.0877 32.6623 24.9586 32.8573 24.8736 33.0725C24.7886 33.2878 24.7495 33.5184 24.759 33.7496ZM31.447 33.7496V32.1086H30.7329V32.5069C30.611 32.3498 30.4532 32.2242 30.2728 32.1406C30.0924 32.0569 29.8947 32.0177 29.696 32.0262C29.2535 32.0479 28.8363 32.239 28.5308 32.5598C28.2253 32.8806 28.055 33.3067 28.055 33.7497C28.055 34.1927 28.2253 34.6188 28.5308 34.9396C28.8363 35.2604 29.2535 35.4515 29.696 35.4732C29.8947 35.4817 30.0925 35.4424 30.2728 35.3588C30.4532 35.2752 30.611 35.1496 30.7329 34.9925V35.3908H31.447V33.7496ZM28.7896 33.7496C28.8007 33.5559 28.8682 33.3697 28.9839 33.214C29.0995 33.0582 29.2582 32.9397 29.4404 32.8731C29.6226 32.8064 29.8203 32.7945 30.0091 32.8389C30.198 32.8833 30.3697 32.9819 30.5032 33.1227C30.6366 33.2635 30.726 33.4403 30.7601 33.6313C30.7943 33.8223 30.7719 34.019 30.6955 34.1974C30.6192 34.3757 30.4924 34.5279 30.3306 34.635C30.1689 34.7421 29.9793 34.7995 29.7853 34.8002C29.6493 34.8021 29.5145 34.7757 29.3892 34.7228C29.2639 34.67 29.1509 34.5917 29.0574 34.493C28.9638 34.3943 28.8917 34.2773 28.8457 34.1493C28.7996 34.0214 28.7805 33.8853 28.7896 33.7496ZM20.1723 32.0262C19.727 32.0497 19.308 32.2447 19.0033 32.5703C18.6987 32.8959 18.532 33.3269 18.5382 33.7728C18.5444 34.2187 18.7231 34.6449 19.0367 34.9619C19.3503 35.2789 19.7745 35.4622 20.2203 35.4732C20.7102 35.4904 21.1893 35.3266 21.5662 35.0131L21.2159 34.4844C20.9448 34.7017 20.609 34.8225 20.2615 34.8277C20.0256 34.8475 19.7911 34.7748 19.6079 34.6248C19.4246 34.4749 19.3069 34.2595 19.2796 34.0243H21.7172C21.7241 33.9351 21.7309 33.8458 21.7309 33.7496C21.7241 32.7266 21.0924 32.0262 20.1723 32.0262ZM20.1585 32.6648C20.3742 32.6606 20.5828 32.7421 20.7385 32.8914C20.8942 33.0407 20.9845 33.2456 20.9894 33.4613H19.2865C19.299 33.2409 19.3973 33.0342 19.5602 32.8854C19.7232 32.7365 19.9379 32.6574 20.1585 32.6648ZM38.0731 33.7496V30.7903H37.359V32.5069C37.2371 32.3498 37.0793 32.2242 36.899 32.1406C36.7186 32.0569 36.5208 32.0177 36.3222 32.0262C35.8797 32.0479 35.4624 32.2389 35.1569 32.5598C34.8514 32.8806 34.681 33.3067 34.681 33.7497C34.681 34.1927 34.8514 34.6188 35.1569 34.9396C35.4624 35.2605 35.8797 35.4515 36.3222 35.4732C36.5208 35.4817 36.7186 35.4424 36.899 35.3588C37.0793 35.2752 37.2371 35.1496 37.359 34.9925V35.3908H38.0731V33.7496ZM39.2635 34.9151C39.3078 34.9148 39.3518 34.9235 39.3927 34.9407C39.432 34.9571 39.4678 34.9809 39.4982 35.0107C39.5284 35.0404 39.5525 35.0757 39.5693 35.1146C39.5865 35.1546 39.5954 35.1976 39.5954 35.2412C39.5954 35.2847 39.5865 35.3277 39.5693 35.3677C39.5524 35.4064 39.5283 35.4416 39.4982 35.4712C39.4677 35.501 39.4319 35.5249 39.3927 35.5416C39.3519 35.559 39.3079 35.5679 39.2635 35.5676C39.1982 35.5682 39.1341 35.5496 39.0793 35.5141C39.0245 35.4785 38.9813 35.4276 38.9553 35.3677C38.9382 35.3277 38.9293 35.2847 38.9293 35.2412C38.9293 35.1977 38.9382 35.1546 38.9553 35.1146C38.972 35.0758 38.9961 35.0405 39.0261 35.0107C39.0565 34.9806 39.0925 34.9569 39.132 34.9407C39.1737 34.9235 39.2184 34.9148 39.2635 34.9151ZM39.2635 35.4956C39.2973 35.4959 39.3308 35.4891 39.3619 35.4756C39.3917 35.4627 39.4188 35.4442 39.4418 35.4212C39.4892 35.3734 39.5158 35.3087 39.5158 35.2413C39.5158 35.1739 39.4892 35.1093 39.4418 35.0614C39.4189 35.0385 39.3917 35.0202 39.3619 35.0075C39.3308 34.9943 39.2973 34.9876 39.2635 34.9879C39.2291 34.9876 39.195 34.9943 39.1632 35.0075C39.1329 35.02 39.1053 35.0383 39.082 35.0614C39.0346 35.1093 39.008 35.1739 39.008 35.2413C39.008 35.3087 39.0346 35.3734 39.082 35.4212C39.1053 35.4444 39.1329 35.4629 39.1632 35.4756C39.1949 35.489 39.229 35.4958 39.2635 35.4956ZM39.2827 35.0886C39.3148 35.0865 39.3466 35.0957 39.3727 35.1146C39.3831 35.1232 39.3913 35.134 39.3968 35.1463C39.4023 35.1586 39.4048 35.1719 39.4042 35.1854C39.4046 35.1969 39.4025 35.2083 39.3982 35.219C39.3939 35.2297 39.3874 35.2393 39.3791 35.2473C39.3592 35.2649 39.334 35.2755 39.3075 35.2773L39.4066 35.3916H39.3291L39.2372 35.2781H39.2076V35.3916H39.1428V35.0886H39.2827ZM39.2076 35.1454V35.2262H39.2819C39.2962 35.2269 39.3104 35.2234 39.3227 35.2161C39.3277 35.2128 39.3318 35.2082 39.3344 35.2028C39.3371 35.1974 39.3383 35.1914 39.3379 35.1854C39.3382 35.1795 39.337 35.1736 39.3343 35.1683C39.3317 35.1631 39.3277 35.1586 39.3227 35.1553C39.3104 35.1481 39.2962 35.1447 39.2819 35.1454H39.2076ZM35.4158 33.7496C35.4269 33.5559 35.4944 33.3698 35.6101 33.214C35.7257 33.0583 35.8844 32.9398 36.0666 32.8731C36.2488 32.8065 36.4465 32.7946 36.6353 32.839C36.8242 32.8834 36.9959 32.982 37.1293 33.1229C37.2627 33.2637 37.3521 33.4404 37.3862 33.6314C37.4204 33.8223 37.3979 34.0191 37.3216 34.1975C37.2453 34.3758 37.1184 34.5279 36.9567 34.635C36.7949 34.7421 36.6054 34.7995 36.4114 34.8002C36.2754 34.8021 36.1406 34.7757 36.0153 34.7228C35.89 34.6699 35.777 34.5917 35.6835 34.493C35.5899 34.3943 35.5179 34.2773 35.4718 34.1493C35.4257 34.0214 35.4067 33.8853 35.4158 33.7496ZM11.3008 33.7496V32.1086H10.5867V32.5069C10.4648 32.3498 10.307 32.2242 10.1267 32.1406C9.94627 32.0569 9.74847 32.0177 9.54983 32.0262C9.10734 32.0479 8.69015 32.239 8.38466 32.5598C8.07916 32.8806 7.90877 33.3067 7.90877 33.7497C7.90877 34.1927 8.07916 34.6188 8.38466 34.9396C8.69015 35.2604 9.10734 35.4515 9.54983 35.4732C9.74848 35.4817 9.94627 35.4424 10.1267 35.3588C10.307 35.2752 10.4648 35.1496 10.5867 34.9925V35.3908H11.3008V33.7496ZM8.64351 33.7496C8.6546 33.5559 8.72213 33.3698 8.83777 33.214C8.95341 33.0583 9.11211 32.9398 9.29429 32.8731C9.47647 32.8065 9.67418 32.7946 9.86302 32.839C10.0519 32.8834 10.2236 32.982 10.357 33.1229C10.4905 33.2637 10.5798 33.4404 10.6139 33.6314C10.6481 33.8224 10.6256 34.0191 10.5493 34.1975C10.473 34.3758 10.3461 34.5279 10.1844 34.635C10.0226 34.7421 9.83309 34.7995 9.63911 34.8002C9.50314 34.8021 9.36826 34.7757 9.24298 34.7228C9.1177 34.6699 9.00473 34.5917 8.9112 34.493C8.81766 34.3943 8.74559 34.2773 8.69951 34.1493C8.65344 34.0214 8.63437 33.8853 8.64351 33.7496Z" fill="#1B1B1B"/>
<path d="M25.4089 7.09521H14.5928V26.5321H25.4089V7.09521Z" fill="#FF5F00"/>
<path d="M15.279 16.8144C15.2772 14.9425 15.7014 13.0948 16.5194 11.411C17.3374 9.72727 18.5277 8.25169 20.0002 7.09598C18.1767 5.66263 15.9867 4.77125 13.6805 4.52372C11.3743 4.2762 9.04498 4.68251 6.95879 5.69623C4.8726 6.70994 3.1137 8.29015 1.88314 10.2562C0.652576 12.2223 0 14.495 0 16.8144C0 19.1339 0.652576 21.4065 1.88314 23.3726C3.1137 25.3387 4.8726 26.9189 6.95879 27.9326C9.04498 28.9464 11.3743 29.3527 13.6805 29.1052C15.9867 28.8576 18.1767 27.9663 20.0002 26.5329C18.5277 25.3772 17.3374 23.9016 16.5194 22.2179C15.7014 20.5341 15.2773 18.6863 15.279 16.8144Z" fill="#EB001B"/>
<path d="M39.9996 16.8144C39.9997 19.1338 39.3472 21.4065 38.1167 23.3726C36.8862 25.3387 35.1274 26.9189 33.0412 27.9326C30.9551 28.9464 28.6258 29.3527 26.3197 29.1052C24.0135 28.8576 21.8235 27.9662 20 26.5329C21.4713 25.376 22.6606 23.9002 23.4785 22.2167C24.2963 20.5332 24.7213 18.686 24.7213 16.8144C24.7213 14.9428 24.2963 13.0956 23.4785 11.4122C22.6606 9.72868 21.4713 8.25285 20 7.09597C21.8235 5.66262 24.0135 4.77124 26.3197 4.52372C28.6258 4.2762 30.9551 4.68252 33.0412 5.69625C35.1274 6.70997 36.8862 8.29019 38.1167 10.2563C39.3472 12.2224 39.9997 14.495 39.9996 16.8144Z" fill="#F79E1B"/>
<path d="M38.8204 24.4739V24.076H38.9809V23.9949H38.5723V24.076H38.7328V24.4739H38.8204ZM39.6138 24.4739V23.9941H39.4885L39.3445 24.3242L39.2004 23.9941H39.075V24.4739H39.1635V24.112L39.2986 24.424H39.3903L39.5254 24.1112V24.4739H39.6138Z" fill="#F79E1B"/>
</svg>
