<svg width="85" height="12" viewBox="0 0 85 12" fill="none" xmlns="http://www.w3.org/2000/svg">
<path fill-rule="evenodd" clip-rule="evenodd" d="M12.9685 11.704V5.58011C12.9685 3.84283 12.0228 3.01815 10.4359 3.01815C9.11522 3.01815 7.97392 3.79022 7.47392 4.56228C7.15327 3.59717 6.35109 3.01815 5.0837 3.01815C3.76413 3.01815 2.62283 3.82533 2.26522 4.33413V3.22881H0V11.704H2.26522V6.00131C2.60435 5.5275 3.26414 5.00098 4.04892 5.00098C4.97718 5.00098 5.33369 5.5625 5.33369 6.35218V11.704H7.61739V5.9837C7.93804 5.5275 8.59783 5.00098 9.40109 5.00098C10.3283 5.00098 10.6848 5.5625 10.6848 6.35218V11.704H12.9685ZM19.1935 11.9147C16.3576 11.9147 14.6457 9.87913 14.6457 7.45761C14.6457 5.0537 16.3576 3.01826 19.1935 3.01826C22.0478 3.01826 23.7609 5.0537 23.7609 7.45761C23.7609 9.87913 22.0478 11.9147 19.1935 11.9147ZM19.1935 9.93185C20.6033 9.93185 21.4054 8.7912 21.4054 7.45761C21.4054 6.14163 20.6033 5.00098 19.1935 5.00098C17.7848 5.00098 17 6.14163 17 7.45761C17 8.7912 17.7848 9.93185 19.1935 9.93185ZM33.5185 11.704V5.72044C33.5185 4.07098 32.6087 3.01815 30.7174 3.01815C29.3087 3.01815 28.2554 3.68489 27.7033 4.33413V3.22881H25.437V11.704H27.7033V6.00131C28.0772 5.49239 28.7728 5.00098 29.6652 5.00098C30.6283 5.00098 31.2522 5.40468 31.2522 6.58033V11.704H33.5185ZM39.7609 11.9147C36.925 11.9147 35.213 9.87913 35.213 7.45761C35.213 5.0537 36.925 3.01826 39.7609 3.01826C42.6152 3.01826 44.3283 5.0537 44.3283 7.45761C44.3283 9.87913 42.6152 11.9147 39.7609 11.9147ZM39.7609 9.93185C41.1707 9.93185 41.9728 8.7912 41.9728 7.45761C41.9728 6.14163 41.1707 5.00098 39.7609 5.00098C38.3522 5.00098 37.5674 6.14163 37.5674 7.45761C37.5674 8.7912 38.3522 9.93185 39.7609 9.93185ZM48.2696 8.98424C48.6446 9.52815 49.4826 9.93174 50.2141 9.93174C51.5348 9.93174 52.4087 8.94902 52.4087 7.47511C52.4087 6.0012 51.5348 5.00098 50.2141 5.00098C49.4826 5.00098 48.6446 5.42207 48.2696 5.98359V8.98424ZM48.2696 11.704H46.0044V0H48.2696V4.31663C48.9478 3.45685 49.9109 3.01815 50.9283 3.01815C53.1217 3.01815 54.7456 4.70261 54.7456 7.47511C54.7456 10.3002 53.1044 11.9146 50.9283 11.9146C49.8935 11.9146 48.9478 11.4583 48.2696 10.616V11.704ZM63.8956 11.704H61.6304V10.8267C61.0424 11.5111 60.025 11.9147 58.9011 11.9147C57.5283 11.9147 55.9044 11.0022 55.9044 9.10707C55.9044 7.12424 57.5283 6.36978 58.9011 6.36978C60.0435 6.36978 61.0598 6.73826 61.6304 7.405V6.26446C61.6304 5.40468 60.8815 4.84304 59.7402 4.84304C58.812 4.84304 57.9565 5.17652 57.225 5.84337L56.3685 4.35185C57.4207 3.43935 58.7761 3.01826 60.1326 3.01826C62.0946 3.01826 63.8956 3.79032 63.8956 6.22935V11.704ZM59.8109 10.4055C60.5424 10.4055 61.2565 10.1599 61.6304 9.66859V8.61576C61.2565 8.12446 60.5424 7.8787 59.8109 7.8787C58.9196 7.8787 58.188 8.335 58.188 9.15967C58.188 9.94924 58.9196 10.4055 59.8109 10.4055ZM74.2239 11.704V5.72044C74.2239 4.07098 73.3141 3.01815 71.4239 3.01815C70.0141 3.01815 68.962 3.68489 68.4087 4.33413V3.22881H66.1435V11.704H68.4087V6.00131C68.7837 5.49239 69.4793 5.00098 70.3717 5.00098C71.3348 5.00098 71.9587 5.40468 71.9587 6.58033V11.704H74.2239ZM84.8913 11.704L81.3772 7.07163L84.7848 3.22881H82.0022L78.737 7.00141V0H76.4717V11.704H78.737V9.52815L79.7717 8.44033L82.0554 11.704H84.8913Z" fill="#1B1B1B"/>
</svg>
