<svg width="68" height="20" viewBox="0 0 68 20" fill="none" xmlns="http://www.w3.org/2000/svg">
<path d="M20.2722 12.6946C21.1207 12.7859 21.9708 12.5375 22.6377 12.0036C23.3445 11.4027 23.9801 10.163 23.9801 8.81753C23.9801 7.32829 23.0276 7.15405 22.6733 7.15405C22.1618 7.15405 21.7735 7.41981 21.403 7.66709L20.2722 12.6946ZM21.7022 5.91503C22.161 5.59633 22.9198 5.0647 24.0677 5.0647C25.8325 5.0647 27.0153 6.39231 27.0153 8.63872C27.0153 9.91351 26.5742 11.4184 25.6558 12.5338C23.9088 14.6752 21.7022 14.6574 19.8305 14.6574L18.8267 18.8883L18.7042 18.9769C18.2973 18.9769 17.9091 18.9582 17.5037 18.9582C16.9038 18.9582 16.3744 18.9947 15.7218 19.0126L15.6327 18.8889C15.6327 18.8889 16.2548 17.0119 17.0285 13.787C17.8407 10.402 18.601 6.43699 18.6678 5.62981L18.791 5.50622L21.8092 5.01176L21.916 5.1347L21.7038 5.91427L21.7022 5.91503ZM15.3171 14.4646L15.176 14.606C14.6103 14.7133 13.9473 14.8004 13.5872 14.8004C12.2545 14.8004 10.2989 14.5986 11.1267 11.2262C11.6851 8.94633 12.0867 7.24187 12.0867 7.24187L10.8505 7.27764L10.7444 7.13612L11.2567 5.34916L11.38 5.26122H12.5448L13.0564 2.97677L13.1796 2.85394C14.5042 2.55611 14.856 2.46372 16.0752 2.10938L16.1814 2.21579L15.404 5.29329L17.2038 5.25753L17.278 5.38036C17.03 6.12503 16.9594 6.31938 16.7301 7.15101L16.589 7.2747L14.9659 7.24035C14.9659 7.24035 14.6363 8.61416 14.1745 10.5263C13.6756 12.5948 13.9377 12.4892 14.4373 12.6857C14.8642 12.8555 15.4248 12.6388 15.7426 12.5331L15.8488 12.6217L15.3194 14.4623L15.3171 14.4646ZM5.44996 6.92166C4.61985 6.92166 3.68071 7.34536 3.13789 9.92394C2.53506 12.793 3.73713 12.9769 4.31996 12.9769C4.8493 12.9769 5.97713 12.6872 6.53691 9.94035C6.92963 8.02003 6.6193 6.92166 5.44996 6.92166ZM9.57126 9.93959C8.81246 14.2807 6.11887 14.8338 3.83876 14.8338C1.58843 14.8338 -0.486024 13.2792 0.100606 9.91948C0.55941 7.29177 2.11484 4.86068 5.89691 5.04601C8.53484 5.17557 10.0866 6.98796 9.57126 9.93959Z" fill="#137547"/>
<path d="M63.7449 8.72533L66.4796 13.9479L66.3742 14.0895L64.4155 14.1423L64.2742 14.0351C63.8155 12.7915 61.8242 8.88467 61.8242 8.88467C61.3122 11.1334 61.2057 11.6642 60.7644 14.0001L60.6416 14.1073L58.8601 14.143L58.7862 14.0358C58.7862 14.0358 59.7286 10.111 60.5416 6.47739C60.9231 4.77815 61.5155 2.0887 61.7514 0.458697L61.8742 0.352283L63.7981 0.033588L63.9046 0.157174C63.5492 1.37978 61.8742 8.63674 61.8742 8.63674C63.1362 7.52424 65.2459 5.30902 65.5285 5.00826L65.722 4.90174H67.7514L67.8046 5.06109C67.3025 5.45794 66.3742 6.30163 66.0383 6.59946L63.7449 8.72381V8.72533ZM56.9992 14.0046L56.859 14.111L55.059 14.1639L54.984 14.041C55.2438 12.8497 56.3307 8.85565 56.3438 7.61435C56.3546 6.5525 55.6916 6.19957 54.859 6.19957C53.7655 6.19957 53.0405 6.74837 52.5114 7.13859C51.8588 10.1117 51.6464 11.05 51.0821 14.006L50.9575 14.1125L49.1584 14.1653L49.0693 14.0425C49.0693 14.0425 49.6054 11.875 50.0888 9.62185C50.4674 7.85783 50.7784 6.40435 50.9218 5.19065L51.0465 5.06707C51.6755 4.99381 52.3003 4.88739 52.9182 4.74837L53.0068 4.87119L52.7593 5.7737C53.4481 5.31424 54.3296 4.69402 55.7949 4.69402C56.3764 4.69402 58.2829 4.85413 58.2829 6.99554C58.2829 8.27631 57.1699 12.7559 56.9938 14.0053M46.9533 6.2338C46.6876 6.2338 46.424 6.21598 46.1582 6.21598C45.5762 6.21598 44.429 6.25174 43.3866 6.96055C41.5305 8.23381 41.4986 10.5176 41.4986 10.6091C41.4986 11.4587 41.9574 12.8214 43.5633 12.8214C44.0407 12.8214 44.8255 12.7097 45.6816 11.9532L46.9533 6.23609V6.2338ZM48.2587 8.4825C47.6408 11.2086 47.5162 11.8816 47.1642 13.9882L47.0395 14.111L45.3808 14.1467L45.2925 14.0232L45.4157 13.3165C45.1188 13.5629 44.3392 14.2183 42.8387 14.2183C41.0375 14.2183 39.5719 12.9442 39.5719 10.7313C39.5719 9.33293 40.2401 7.81022 40.9826 6.92555C42.6233 4.99555 44.9005 4.88989 46.525 4.88989L48.9602 4.90848L49.0486 5.04924L48.2587 8.4825ZM31.3649 12.7305C32.3634 12.7774 33.8365 12.7484 34.9828 11.9696C36.2888 11.0663 36.9072 9.49076 36.9072 8.3575C36.9072 6.74685 35.9362 6.12739 34.806 6.12739C33.9055 6.12739 33.27 6.51685 32.705 6.87196C32.705 6.87196 31.474 12.2964 31.3649 12.7305ZM29.2109 14.0232C29.329 13.4863 30.0893 10.3411 30.8681 6.80054C31.5364 3.76696 31.9967 1.87424 32.1592 0.460218L32.3003 0.335109L34.2247 0L34.3131 0.123588L33.8194 2.0887L33.0064 5.48772C33.7489 5.08043 34.4534 4.69033 35.5834 4.69033C37.3304 4.69033 38.7961 5.87565 38.7961 8.10804C38.7961 9.01044 38.5139 10.7097 37.3304 12.073C35.7416 13.8965 33.7807 14.0224 31.5059 14.111H30.5355L29.2993 14.1289L29.2109 14.0232Z" fill="#6EC72D"/>
</svg>
