<svg width="60" height="24" viewBox="0 0 60 24" fill="none" xmlns="http://www.w3.org/2000/svg">
<path d="M59.9992 10.5098C59.6641 11.2718 59.3305 12.0344 58.9937 12.7956C58.1399 14.7256 57.3217 16.6716 56.4379 18.5881C55.8981 19.7585 55.2743 20.8829 54.4468 21.8808C53.9155 22.5216 53.3423 23.1176 52.6051 23.5294C52.3247 23.6861 52.0355 23.8221 51.7288 23.9207C51.6431 23.9483 51.6036 23.9379 51.581 23.8427C51.4906 23.4626 51.395 23.0838 51.2967 22.7057C51.2742 22.6189 51.3012 22.5797 51.3811 22.5474C51.8432 22.3601 52.278 22.1212 52.6788 21.8245C53.127 21.4928 53.475 21.065 53.8006 20.6185C54.022 20.3148 54.2085 19.9893 54.3877 19.6589C54.4883 19.4736 54.5091 19.2786 54.4707 19.079C54.1356 17.3416 53.7971 15.6049 53.46 13.8679C53.2539 12.8058 53.0483 11.7435 52.8428 10.6812C52.8136 10.53 52.8163 10.5267 52.9655 10.5266C53.3682 10.5262 53.771 10.5298 54.1735 10.5242C54.2818 10.5227 54.32 10.5583 54.3371 10.6656C54.5431 11.9615 54.7536 13.2567 54.9645 14.5517C55.0989 15.3765 55.2361 16.2009 55.3723 17.0255C55.4143 17.2797 55.4565 17.534 55.4993 17.7881C55.5049 17.8213 55.4992 17.8689 55.5421 17.8751C55.5903 17.882 55.5888 17.8296 55.5997 17.8001C56.1139 16.4192 56.666 15.0532 57.216 13.6864C57.6304 12.6567 58.0469 11.6279 58.4583 10.597C58.4989 10.4951 58.5485 10.452 58.6628 10.4542C59.1082 10.4626 59.554 10.4607 59.9996 10.4626C59.9992 10.4784 59.9992 10.494 59.9992 10.5098Z" fill="#1B1B1B"/>
<path d="M31.4033 0C31.507 0.0163999 31.6111 0.0306666 31.7143 0.0497331C32.8223 0.253865 33.6366 1.24492 33.6639 2.37438C33.6927 3.56411 32.828 4.66463 31.5621 4.82583C30.1837 5.0013 28.9919 4.0261 28.8391 2.69305C28.6941 1.42652 29.6231 0.228799 30.9143 0.0282672C30.9757 0.0188006 31.0403 0.030934 31.0983 0.000134276C31.1999 9.43997e-07 31.3015 0 31.4033 0Z" fill="#F8A81B"/>
<path d="M24.8331 21.6816C24.9991 21.3987 25.1575 21.13 25.3147 20.8607C26.0499 19.6014 26.7563 18.3266 27.4186 17.027C27.9247 16.0339 28.4004 15.0275 28.8079 13.9894C29.18 13.0413 29.3907 12.0529 29.5448 11.0508C29.6091 10.6333 29.6391 10.214 29.5981 9.78985C29.5188 8.96786 29.0904 8.43493 28.3031 8.1868C27.9086 8.0624 27.503 8.01373 27.0938 7.9764C26.0648 7.88253 25.0336 7.87253 24.0021 7.88707C23.2483 7.8976 22.4953 7.9328 21.7438 7.9948C21.7297 7.996 21.715 7.99107 21.6914 7.98773C21.717 7.93453 21.7625 7.91827 21.8009 7.89627C22.657 7.40374 23.5546 7.00014 24.4805 6.65921C25.4836 6.28988 26.5104 6.00295 27.5612 5.80482C28.2718 5.67068 28.9875 5.57668 29.7096 5.52882C30.1973 5.49655 30.6851 5.47909 31.1736 5.48829C33.286 5.52788 35.3513 5.84415 37.3486 6.55134C38.3204 6.89547 39.2566 7.31574 40.1298 7.86853C40.1813 7.90107 40.2697 7.92813 40.263 7.9844C40.2559 8.04453 40.1622 8.04253 40.1051 8.0612C39.3515 8.30653 38.5773 8.45466 37.791 8.54173C37.244 8.60226 36.6926 8.63026 36.154 8.75319C35.8324 8.82653 35.5197 8.92493 35.2492 9.12399C34.8817 9.39439 34.7168 9.77905 34.6465 10.2126C34.5613 10.7376 34.5893 11.2637 34.6397 11.79C34.7213 12.6421 34.9044 13.4717 35.1842 14.2802C35.2725 14.5351 35.3694 14.7868 35.4841 15.0311C35.4986 15.0619 35.5204 15.0913 35.5158 15.1343C35.4661 15.1439 35.4352 15.1082 35.4008 15.0886C34.6813 14.677 33.9222 14.3749 33.094 14.2769C32.0103 14.1488 31.0863 14.4473 30.3415 15.2794C29.7285 15.9643 29.1251 16.6555 28.5746 17.3917C28.1087 18.0145 27.6682 18.6561 27.1807 19.2628C26.4988 20.1115 25.7683 20.9138 24.9444 21.6279C24.9187 21.6503 24.8988 21.6831 24.8331 21.6816Z" fill="#136BB5"/>
<path d="M38.2437 10.4571C38.4195 10.4569 38.5955 10.4603 38.7714 10.4557C38.8733 10.4531 38.8983 10.4909 38.8825 10.5899C38.8033 11.0833 38.7294 11.5777 38.6555 12.072C38.6503 12.1069 38.6131 12.1599 38.6599 12.1767C38.7098 12.1945 38.7237 12.1301 38.745 12.0971C39.0542 11.6197 39.4318 11.2065 39.8927 10.8715C40.1567 10.6796 40.4421 10.5271 40.7486 10.4149C40.9259 10.35 41.1066 10.3099 41.2984 10.3176C41.5014 10.3257 41.7055 10.3291 41.908 10.3176C42.4386 10.2876 42.8655 10.5132 43.2371 10.8584C43.7079 11.2957 43.9435 11.8632 44.0758 12.4777C44.2458 13.2669 44.2279 14.0621 44.1167 14.8557C43.9982 15.7028 43.744 16.5093 43.335 17.2624C42.8224 18.206 42.1404 18.9901 41.1755 19.4961C40.6777 19.7571 40.1477 19.9065 39.5823 19.925C39.0227 19.9434 38.4745 19.8889 37.9473 19.6889C37.8562 19.6543 37.7687 19.6098 37.6814 19.5663C37.5739 19.5129 37.5569 19.5185 37.5369 19.6361C37.4798 19.971 37.4249 20.3062 37.3683 20.6413C37.2169 21.5385 37.063 22.4353 36.9158 23.3331C36.8958 23.455 36.8478 23.4926 36.7255 23.4899C36.3622 23.482 35.9985 23.4872 35.6349 23.487C35.4545 23.4868 35.4524 23.4863 35.482 23.314C35.6329 22.4366 35.7853 21.5594 35.9365 20.6819C36.1838 19.2465 36.4306 17.811 36.6777 16.3754C36.8531 15.3556 37.0315 14.3362 37.2034 13.3157C37.3201 12.6227 37.4055 11.9248 37.4973 11.228C37.5267 11.0035 37.561 10.7796 37.5886 10.5548C37.5977 10.4803 37.6331 10.4552 37.7041 10.4561C37.8841 10.4585 38.0639 10.4571 38.2437 10.4571ZM42.7602 13.8052C42.7598 13.2817 42.687 12.8901 42.5142 12.5019C42.2111 11.8208 41.5432 11.4895 40.819 11.6656C40.2835 11.7959 39.8742 12.1225 39.5242 12.5292C38.9102 13.2425 38.5574 14.0857 38.3561 14.9928C38.1377 15.9764 38.033 16.9804 37.8546 17.9713C37.8215 18.1548 37.885 18.2504 38.0254 18.3322C38.6973 18.7238 39.4069 18.8181 40.1425 18.561C40.685 18.3714 41.105 17.999 41.4562 17.5538C42.3226 16.4553 42.7184 15.1909 42.7602 13.8052Z" fill="#1B1B1B"/>
<path d="M12.5039 17.3979C12.453 17.4164 12.4442 17.4709 12.4221 17.5127C12.1075 18.1063 11.7457 18.666 11.2552 19.1321C10.7882 19.5758 10.2524 19.8829 9.60277 19.9761C8.64824 20.113 7.76078 19.6753 7.28932 18.824C7.03318 18.3615 6.89332 17.8641 6.85932 17.3389C6.75572 15.7388 7.13878 14.2577 8.00398 12.9126C8.82197 11.6408 9.95116 10.7804 11.4476 10.4468C12.0629 10.3096 12.6847 10.2947 13.3115 10.3558C13.7717 10.4006 14.2255 10.472 14.669 10.6039C14.8414 10.6551 14.8397 10.6567 14.8106 10.831C14.5874 12.1674 14.3663 13.504 14.1426 14.8403C14.0349 15.4833 13.9262 16.1263 13.8487 16.7739C13.7931 17.2389 13.7417 17.7048 13.7195 18.1731C13.7031 18.5203 13.6866 18.8674 13.6779 19.2149C13.6741 19.3708 13.6869 19.5272 13.6963 19.683C13.7015 19.7688 13.6677 19.803 13.5818 19.8025C13.2026 19.8005 12.8235 19.8 12.4443 19.8029C12.3465 19.8037 12.3254 19.7548 12.329 19.6709C12.3466 19.2652 12.3669 18.8596 12.4093 18.4556C12.4447 18.1179 12.4849 17.7805 12.5231 17.4431C12.5249 17.4273 12.5262 17.412 12.5039 17.3979ZM8.33597 16.5884C8.34211 17.0831 8.40971 17.4556 8.56264 17.8041C8.81877 18.388 9.39197 18.6767 10.0144 18.5332C10.5457 18.4107 10.9457 18.0837 11.2934 17.6871C11.9661 16.9199 12.3611 16.0116 12.6065 15.0324C12.7653 14.3988 12.8402 13.7494 12.9543 13.1074C13.0357 12.6498 13.1077 12.1906 13.1838 11.732C13.1923 11.681 13.2073 11.6268 13.1283 11.618C12.7207 11.5724 12.313 11.5208 11.9023 11.58C11.1917 11.6823 10.5889 12.0087 10.0802 12.5012C8.92717 13.6178 8.41397 15.0121 8.33597 16.5884Z" fill="#1B1B1B"/>
<path d="M50.0611 17.3879C49.9878 17.4183 49.9794 17.4689 49.9584 17.5086C49.6468 18.0986 49.2951 18.6607 48.813 19.1294C48.3471 19.5822 47.8063 19.8851 47.1518 19.9775C46.1925 20.113 45.3086 19.6851 44.831 18.8367C44.5695 18.3723 44.4281 17.8713 44.3937 17.3421C44.2898 15.7465 44.6698 14.2686 45.5298 12.9253C46.3474 11.6482 47.4778 10.784 48.978 10.4477C49.5932 10.3098 50.2151 10.2948 50.8419 10.3553C51.302 10.3997 51.7559 10.4709 52.1994 10.6026C52.3756 10.655 52.3734 10.6548 52.3427 10.8385C52.1046 12.2673 51.8688 13.6965 51.629 15.125C51.5126 15.8182 51.4051 16.5126 51.3326 17.2117C51.2858 17.6619 51.2446 18.1131 51.2306 18.5662C51.2192 18.9331 51.1936 19.3 51.2299 19.6668C51.2402 19.7702 51.198 19.8044 51.0967 19.8034C50.7294 19.7995 50.3619 19.7992 49.9946 19.8035C49.8894 19.8047 49.8582 19.7623 49.8626 19.6636C49.8839 19.1838 49.9132 18.7046 49.9655 18.227C49.9955 17.9529 50.0279 17.6789 50.0611 17.3879ZM49.9056 11.5497C49.264 11.5596 48.7366 11.7108 48.2548 12.0113C47.3723 12.5618 46.7942 13.3622 46.3965 14.3049C46.1222 14.9549 45.9733 15.6337 45.9447 16.3407C45.9279 16.7581 45.9558 17.1675 46.0745 17.5686C46.3471 18.4895 47.1557 18.7664 47.931 18.4297C48.3794 18.2349 48.7255 17.9087 49.0267 17.5326C49.5808 16.8409 49.9306 16.0485 50.1656 15.2005C50.3152 14.661 50.3856 14.1064 50.4792 13.5561C50.5832 12.9442 50.6835 12.3317 50.787 11.7197C50.7972 11.6592 50.793 11.6229 50.7192 11.6172C50.4235 11.5945 50.128 11.5684 49.9056 11.5497Z" fill="#1B1B1B"/>
<path d="M21.6701 10.5264C21.8811 10.5265 22.0923 10.5284 22.3034 10.5255C22.3797 10.5244 22.4141 10.5511 22.4266 10.6297C22.5887 11.6439 22.7525 12.6579 22.9186 13.6714C23.0606 14.5385 23.207 15.4049 23.3499 16.272C23.4331 16.7766 23.5131 17.282 23.595 17.7869C23.6005 17.8204 23.5949 17.8675 23.6367 17.875C23.6855 17.8837 23.6843 17.8309 23.6951 17.8017C24.1815 16.4896 24.7066 15.1929 25.2471 13.9024C25.7091 12.7993 26.1667 11.6944 26.6227 10.5888C26.663 10.4911 26.7148 10.4527 26.8226 10.4544C27.1978 10.4607 27.5731 10.4565 27.9484 10.4569C28.1039 10.4571 28.1104 10.4668 28.0502 10.6041C27.2455 12.4405 26.4428 14.2777 25.6355 16.1129C25.1398 17.2396 24.67 18.3783 24.0986 19.4705C23.6151 20.3943 23.0691 21.2767 22.3857 22.0689C21.8087 22.7375 21.1719 23.3311 20.359 23.7076C20.1815 23.7899 20.0011 23.8639 19.8146 23.9236C19.7407 23.9472 19.7018 23.9411 19.6811 23.8547C19.5878 23.4672 19.4902 23.0808 19.3902 22.6951C19.3681 22.6096 19.4046 22.5772 19.4764 22.5479C19.9382 22.3598 20.3731 22.1215 20.7741 21.8249C21.2223 21.4933 21.5703 21.0655 21.8961 20.6191C22.1175 20.3155 22.3043 19.9899 22.4833 19.6597C22.5857 19.4706 22.6041 19.2726 22.5646 19.0683C22.1342 16.8442 21.7019 14.6204 21.2703 12.3964C21.1594 11.8251 21.0493 11.2536 20.9391 10.6821C20.9095 10.5285 20.9117 10.5264 21.0721 10.5261C21.2714 10.526 21.4707 10.5263 21.6701 10.5264Z" fill="#1B1B1B"/>
<path d="M4.01931e-05 16.2237C0.02484 14.7668 0.430437 13.4288 1.27123 12.2326C1.75829 11.5396 2.36269 10.9738 3.14748 10.6306C3.97468 10.2688 4.82587 10.1875 5.67666 10.5323C6.47253 10.8548 6.93639 11.4707 7.02866 12.318C7.15452 13.474 6.68119 14.3544 5.68613 14.95C5.08587 15.3093 4.41921 15.4752 3.73588 15.5824C3.01602 15.6953 2.29042 15.7228 1.5631 15.7169C1.48496 15.7163 1.42216 15.7228 1.41883 15.8223C1.39416 16.5503 1.43883 17.2645 1.88549 17.8832C2.22882 18.3588 2.71362 18.5869 3.28908 18.6207C4.12828 18.6699 4.91227 18.4883 5.6196 18.0208C5.70427 17.9649 5.72626 17.9989 5.73906 18.0773C5.79426 18.4125 5.8476 18.7481 5.90786 19.0824C5.9256 19.1809 5.87573 19.2228 5.80346 19.2652C5.23507 19.5984 4.61747 19.7852 3.96894 19.8748C3.45601 19.9457 2.94069 19.9662 2.42976 19.8633C1.3375 19.6432 0.643636 18.9692 0.270838 17.9403C0.0704397 17.3864 -0.00195979 16.8108 4.01931e-05 16.2237ZM2.01536 14.4726C2.47269 14.4668 2.92842 14.4342 3.38082 14.3699C3.85001 14.3034 4.31148 14.2028 4.73881 13.9855C5.21014 13.7459 5.64347 13.335 5.54573 12.5412C5.50053 12.1734 5.33307 11.8807 4.99254 11.7104C4.58134 11.5048 4.15428 11.5124 3.72761 11.6495C3.24242 11.8055 2.87069 12.1246 2.55309 12.5114C2.10229 13.0603 1.80603 13.6894 1.60243 14.3659C1.5759 14.4542 1.6023 14.4771 1.68709 14.4736C1.79629 14.4691 1.90589 14.4726 2.01536 14.4726Z" fill="#1B1B1B"/>
<path d="M16.6216 19.931C15.9406 19.9243 15.2848 19.7447 14.6713 19.4039C14.5703 19.3478 14.5453 19.2934 14.589 19.1807C14.7006 18.893 14.7975 18.5997 14.9003 18.3086C14.9521 18.1622 14.9517 18.1627 15.0796 18.2382C15.5219 18.4987 15.9906 18.689 16.5032 18.751C17.2274 18.8386 17.8522 18.5671 18.183 17.9926C18.4868 17.4647 18.4578 16.5385 17.7523 16.0011C17.4564 15.7758 17.1303 15.5957 16.8422 15.3597C16.3255 14.9364 15.9338 14.4293 15.8014 13.7618C15.5687 12.5884 16.1539 11.3546 17.2106 10.7884C18.1802 10.2687 19.1795 10.2689 20.1879 10.6642C20.5557 10.8084 20.5515 10.821 20.4164 11.1866C20.3339 11.4102 20.2476 11.6325 20.1667 11.8568C20.1379 11.9366 20.1043 11.9468 20.0304 11.9013C19.69 11.692 19.3128 11.6036 18.9186 11.5676C18.679 11.5456 18.4422 11.5498 18.2092 11.61C17.1191 11.8916 16.8808 13.2185 17.5758 13.9081C17.7911 14.1217 18.033 14.2989 18.2868 14.4613C18.6515 14.6945 18.9854 14.9645 19.2608 15.2993C19.7248 15.8633 19.9244 16.5062 19.8483 17.2399C19.7719 17.9762 19.5089 18.6175 18.9571 19.1229C18.4991 19.5422 17.9471 19.7666 17.3426 19.875C17.1111 19.9162 16.877 19.9256 16.6216 19.931Z" fill="#1B1B1B"/>
</svg>
