<svg width="16" height="16" viewBox="0 0 16 16" fill="none" xmlns="http://www.w3.org/2000/svg">
<path fill-rule="evenodd" clip-rule="evenodd" d="M14.6671 8.00059C14.6669 11.6825 11.682 14.6671 8.00012 14.667C4.31822 14.6668 1.33357 11.682 1.33372 8.00006C1.33387 4.31816 4.31875 1.33351 8.00065 1.33366C11.6825 1.3338 14.6672 4.31869 14.6671 8.00059ZM8.0005 5.16699C7.58628 5.16697 7.25048 5.50275 7.25047 5.91696C7.25046 6.1931 7.02659 6.41695 6.75045 6.41694C6.47431 6.41693 6.25046 6.19306 6.25047 5.91692C6.25051 4.95042 7.03404 4.16695 8.00054 4.16699C8.96704 4.16703 9.75051 4.95056 9.75047 5.91706C9.75045 6.39095 9.56141 6.8217 9.25572 7.13635C9.19421 7.19966 9.13554 7.25828 9.07956 7.31421C8.93567 7.45797 8.8096 7.58391 8.699 7.72601C8.55297 7.91363 8.50038 8.05152 8.50038 8.16701L8.50036 8.66701C8.50035 8.94315 8.27648 9.167 8.00034 9.16699C7.7242 9.16698 7.50035 8.94311 7.50036 8.66697L7.50038 8.16697C7.5004 7.73018 7.70375 7.3766 7.90987 7.11179C8.06237 6.91585 8.25406 6.72456 8.40963 6.56931C8.45655 6.52248 8.50019 6.47893 8.53848 6.43953C8.67018 6.30397 8.75046 6.12038 8.75047 5.91702C8.75048 5.50281 8.41471 5.16701 8.0005 5.16699ZM8.00025 11.3337C8.36844 11.3337 8.66693 11.0352 8.66695 10.667C8.66696 10.2988 8.3685 10.0003 8.00031 10.0003C7.63212 10.0003 7.33363 10.2988 7.33361 10.667C7.3336 11.0352 7.63206 11.3336 8.00025 11.3337Z" fill="#00C96F"/>
</svg>
