<svg width="85" height="12" viewBox="0 0 85 12" fill="none" xmlns="http://www.w3.org/2000/svg">
<path d="M2.4912 9.19891H0V0H8.96815V9.19891H6.4775V1.78695H2.4912V9.19891Z" fill="#60B238"/>
<path d="M10.1758 2.52137V11.6301H12.4715V8.51485C13.2409 9.38333 14.4942 9.44855 14.7962 9.44855C16.9857 9.44855 18.3293 7.98876 18.3293 5.87354C18.3293 3.66594 17.0003 2.27246 14.8418 2.27246C14.2976 2.27246 13.2409 2.36485 12.365 3.32463H12.3199L12.3348 2.52137H10.1758ZM12.365 5.84637C12.365 3.98115 13.4676 3.61376 14.1623 3.61376C14.8418 3.61376 15.9438 3.98115 15.9438 5.84637C15.9438 7.00398 15.476 8.10833 14.1623 8.10833C12.8186 8.10833 12.365 7.00398 12.365 5.84637Z" fill="#60B238"/>
<path d="M24.0211 8.39757C23.1758 9.22474 22.3616 9.44866 21.4548 9.44866C18.9787 9.44866 18.8877 7.50301 18.8877 6.70192V2.52148H21.1828V6.38562C21.1828 7.71388 21.6218 8.10844 22.4666 8.10844C23.9153 8.10844 24.0211 6.75409 24.0211 6.26822V2.52148H26.317V9.19866H24.0211V8.39757Z" fill="#60B238"/>
<path d="M29.6087 6.38562H31.0129C32.0992 6.38562 32.3259 6.728 32.3259 7.17474C32.3259 7.46387 32.1743 7.85844 31.0414 7.85844H29.6087V6.38562ZM27.3135 2.52148V9.19866H31.8734C33.534 9.19866 34.6813 8.85627 34.6813 7.48996C34.6813 6.43887 34.1219 5.97909 32.8542 5.74213V5.70301C33.6849 5.58453 34.41 5.0454 34.41 4.13887C34.41 2.52148 32.5979 2.52148 31.8883 2.52148H27.3135ZM29.6087 3.86279H30.8458C31.4953 3.86279 32.0534 3.96822 32.0534 4.51931C32.0534 5.12474 31.1779 5.13779 30.8006 5.13779H29.6087V3.86279Z" fill="#60B238"/>
<path d="M37.5818 4.67789C37.5818 3.69202 38.5782 3.61376 38.9861 3.61376C39.2431 3.61376 40.1935 3.62681 40.2246 4.4942C40.2246 4.55942 40.2246 4.61159 40.2246 4.67789C40.1793 5.33441 39.5753 5.2029 37.8848 5.42681C36.4948 5.62355 35.0303 5.99094 35.0303 7.51594C35.0303 8.06811 35.257 9.44854 37.703 9.44854C38.6397 9.44854 39.6665 9.19855 40.2694 8.54202H40.316L40.5115 9.19854H42.927V9.08007C42.4893 8.98768 42.459 8.54202 42.4739 7.81811L42.5192 4.7692C42.5346 3.9942 42.459 2.27246 39.0016 2.27246C38.1709 2.27246 35.4984 2.35181 35.3928 4.67789H37.5818ZM40.2395 6.43877C40.2395 7.77898 39.122 8.10833 38.5641 8.10833C38.1405 8.10833 37.3857 7.96268 37.3857 7.33224C37.3857 6.58333 38.246 6.43876 38.7298 6.37246C39.6206 6.24093 39.5448 6.28116 40.2395 6.01811V6.43877Z" fill="#60B238"/>
<path d="M42.7744 3.86279V2.52148H50.1422V3.86279H47.6057V9.19866H45.3112V3.86279H42.7744Z" fill="#60B238"/>
<path d="M53.0761 1.78695H58.798V0H50.584V9.19891H55.6269C58.0734 9.19891 59.6429 8.30544 59.6429 6.42609C59.6429 3.48261 56.5029 3.4163 55.6269 3.4163H53.0761V1.78695ZM53.0761 5.20435H55.1439C55.7493 5.20435 56.9562 5.26956 56.9562 6.37283C56.9562 7.2413 56.08 7.41196 55.0992 7.41196H53.0761V5.20435Z" fill="#60B238"/>
<path d="M62.6334 4.67789C62.6334 3.69202 63.6302 3.61376 64.0367 3.61376C64.2943 3.61376 65.2454 3.62681 65.2758 4.4942C65.2758 4.55942 65.2758 4.61159 65.2758 4.67789C65.2302 5.33441 64.6269 5.2029 62.9345 5.42681C61.5465 5.62355 60.082 5.99094 60.082 7.51594C60.082 8.06811 60.3084 9.44854 62.7541 9.44854C63.69 9.44854 64.7171 9.19855 65.3204 8.54202H65.3661L65.5628 9.19854H67.978V9.08007C67.5421 8.98768 67.5095 8.54202 67.5258 7.81811L67.5704 4.7692C67.5856 3.9942 67.5095 2.27246 64.0519 2.27246C63.2226 2.27246 60.5497 2.35181 60.4443 4.67789H62.6334ZM65.291 6.43877C65.291 7.77898 64.1737 8.10833 63.615 8.10833C63.1921 8.10833 62.4378 7.96268 62.4378 7.33224C62.4378 6.58333 63.2976 6.43876 63.7802 6.37246C64.6715 6.24093 64.5954 6.28116 65.291 6.01811V6.43877Z" fill="#60B238"/>
<path d="M70.8453 9.19866H68.5508V2.52148H70.8453V5.03235H73.6095V2.52148H75.904V9.19866H73.6095V6.37257H70.8453V9.19866Z" fill="#60B238"/>
<path d="M81.6995 2.52148H84.2495L81.0952 5.64974L84.4017 9.19866H81.7137L79.2376 6.28127H79.193V9.19866H76.8984V2.52148H79.193V5.20301H79.2376L81.6995 2.52148Z" fill="#60B238"/>
</svg>
