<svg width="18" height="18" viewBox="0 0 18 18" fill="none" xmlns="http://www.w3.org/2000/svg">
<path fill-rule="evenodd" clip-rule="evenodd" d="M9 16.5C13.1421 16.5 16.5 13.1421 16.5 9C16.5 4.85786 13.1421 1.5 9 1.5C4.85786 1.5 1.5 4.85786 1.5 9C1.5 13.1421 4.85786 16.5 9 16.5ZM9.5625 6C9.5625 5.68934 9.31066 5.4375 9 5.4375C8.68934 5.4375 8.4375 5.68934 8.4375 6V9C8.4375 9.14918 8.49676 9.29226 8.60225 9.39775L10.4773 11.2727C10.6969 11.4924 11.0531 11.4924 11.2727 11.2727C11.4924 11.0531 11.4924 10.6969 11.2727 10.4773L9.5625 8.767V6Z" fill="#FFB300"/>
</svg>
