<svg width="34" height="34" viewBox="0 0 34 34" fill="none" xmlns="http://www.w3.org/2000/svg">
<g clip-path="url(#clip0_4090_271)">
<path d="M33.5714 16.7857C33.5714 7.51521 26.0562 0 16.7857 0C7.51521 0 0 7.51521 0 16.7857C0 25.1638 6.13826 32.1083 14.1629 33.3675V21.6378H9.90095V16.7857H14.1629V13.0876C14.1629 8.88069 16.669 6.55692 20.5032 6.55692C22.3391 6.55692 24.2606 6.88477 24.2606 6.88477V11.0156H22.144C20.0589 11.0156 19.4085 12.3096 19.4085 13.6384V16.7857H24.0639L23.3197 21.6378H19.4085V33.3675C27.4332 32.1083 33.5714 25.1638 33.5714 16.7857Z" fill="#1877F2"/>
<path d="M23.3201 21.638L24.0643 16.7859H19.4089V13.6386C19.4089 12.3112 20.0593 11.0158 22.1444 11.0158H24.261V6.88497C24.261 6.88497 22.3402 6.55713 20.5036 6.55713C16.6694 6.55713 14.1634 8.8809 14.1634 13.0878V16.7859H9.90137V21.638H14.1634V33.3677C15.9013 33.6396 17.671 33.6396 19.4089 33.3677V21.638H23.3201Z" fill="white"/>
</g>
<defs>
<clipPath id="clip0_4090_271">
<rect width="33.5714" height="33.5714" fill="white"/>
</clipPath>
</defs>
</svg>
