<svg width="34" height="34" viewBox="0 0 34 34" fill="none" xmlns="http://www.w3.org/2000/svg">
<rect width="33.5714" height="33.5714" rx="16.7857" fill="#419FD9"/>
<rect width="33.5714" height="33.5714" rx="16.7857" fill="url(#paint0_linear_4090_264)"/>
<path d="M7.54501 16.4155C12.4264 14.2441 15.6814 12.8126 17.31 12.1209C21.9602 10.1461 22.9264 9.80306 23.5562 9.79161C23.6947 9.78924 24.0044 9.82429 24.2051 9.9905C24.3745 10.1308 24.4211 10.3204 24.4434 10.4535C24.4657 10.5866 24.4934 10.8897 24.4714 11.1265C24.2194 13.8299 23.129 20.3902 22.5743 23.418C22.3396 24.6992 21.8774 25.1287 21.43 25.1708C20.4576 25.2621 19.7192 24.5147 18.7774 23.8843C17.3037 22.898 16.4711 22.284 15.0406 21.3215C13.3874 20.2091 14.4591 19.5978 15.4012 18.5986C15.6478 18.3371 19.9321 14.3583 20.0151 13.9973C20.0254 13.9522 20.0351 13.7839 19.9372 13.6951C19.8392 13.6062 19.6947 13.6366 19.5905 13.6608C19.4427 13.695 17.0884 15.2839 12.5275 18.4272C11.8593 18.8958 11.254 19.124 10.7117 19.1121C10.1138 19.0989 8.96375 18.7669 8.10881 18.4832C7.06018 18.1352 6.22675 17.9511 6.29933 17.3601C6.33713 17.0522 6.75236 16.7374 7.54501 16.4155Z" fill="white"/>
<defs>
<linearGradient id="paint0_linear_4090_264" x1="16.7857" y1="0" x2="16.7857" y2="33.3223" gradientUnits="userSpaceOnUse">
<stop stop-color="#2AABEE"/>
<stop offset="1" stop-color="#229ED9"/>
</linearGradient>
</defs>
</svg>
