<svg width="87" height="15" viewBox="0 0 87 15" fill="none" xmlns="http://www.w3.org/2000/svg">
<path d="M54.1033 11.7076H54.2565C54.4293 11.7217 54.6022 11.7043 54.7685 11.6565H54.9739L54.8707 11.5033L53.438 8.99783L53.2337 9.1L54.1033 11.6054V11.7076ZM48.4217 7.46414C48.6761 7.33914 48.8989 7.15979 49.0761 6.93913C49.2533 6.71848 49.3794 6.46087 49.4457 6.18587V6.59457C49.4435 7.17826 49.4946 7.75978 49.5989 8.3337C49.4696 8.11848 49.2989 7.93044 49.0967 7.78153C48.8957 7.63261 48.6652 7.525 48.4217 7.46414ZM17.9152 10.838L15.3554 7.41304L17.9152 4.03913V10.838ZM53.95 6.64565C54.5641 6.64565 54.9739 7.10653 54.9739 7.87283C55.0098 8.12826 54.9511 8.38913 54.8098 8.60435C54.6685 8.82065 54.4543 8.97827 54.2054 9.04892L54.0522 9.1L54.1544 9.25326L55.4337 11.5543L55.4859 11.6565H55.5881C56.3609 11.4859 57.063 11.0793 57.5946 10.4935C58.1261 9.90761 58.4631 9.16957 58.5565 8.38479C58.8131 10.6337 60.3989 11.8098 61.9859 11.8098C62.4011 11.8239 62.8141 11.7533 63.2011 11.6044C63.588 11.4554 63.9402 11.2294 64.238 10.9402V11.5033H67.7185V3.8337H64.3402V7.5663C64.3587 7.73261 64.3413 7.9 64.2913 8.05978C64.2402 8.21848 64.1565 8.36631 64.0456 8.49131C63.9348 8.61631 63.8 8.7163 63.6478 8.78587C63.4957 8.85652 63.3304 8.89348 63.163 8.89565C62.9946 8.89674 62.8283 8.86196 62.6739 8.79457C62.5207 8.72609 62.3826 8.625 62.2717 8.49891C62.1598 8.37283 62.0772 8.225 62.0272 8.06413C61.9783 7.90326 61.9641 7.73369 61.9859 7.5663C61.9717 7.40109 61.9913 7.23478 62.0446 7.07718C62.0967 6.91957 62.1804 6.775 62.2902 6.65C62.4 6.52609 62.5337 6.425 62.6848 6.35435C62.8348 6.2837 62.9978 6.24348 63.163 6.23696H63.3685L63.2652 6.0837L61.7815 3.52718L61.7304 3.47608H61.6793C59.9902 3.62935 58.7609 5.00979 58.5565 6.95326C58.4489 6.10544 58.0261 5.33044 57.3717 4.78044C56.7163 4.23044 55.8793 3.94782 55.025 3.98804C54.1565 3.94239 53.3011 4.21522 52.6185 4.75435C52.9772 3.57826 54.0522 3.22065 55.7413 2.86305C56.7141 2.6587 58.3522 2.3 58.4033 0.102176V0H55.6391V0.102176C55.588 0.357611 55.2804 0.459786 54.5641 0.613047C54.2565 0.664134 53.8478 0.766308 53.387 0.868482C51.1348 1.43153 49.8554 3.0163 49.5989 5.57282C49.4967 4.29456 48.1663 3.52718 46.1185 3.52718C45.0359 3.53152 43.962 3.72174 42.9446 4.09022V3.8337H39.413V7.5663C39.4315 7.73261 39.4141 7.9 39.363 8.05978C39.313 8.21848 39.2293 8.36631 39.1185 8.49131C39.0076 8.61631 38.8717 8.7163 38.7196 8.78587C38.5674 8.85652 38.4033 8.89348 38.2359 8.89565C38.0674 8.89674 37.9011 8.86196 37.7467 8.79457C37.5924 8.72609 37.4554 8.625 37.3435 8.49891C37.2326 8.37283 37.1489 8.225 37.1 8.06413C37.0511 7.90326 37.037 7.73369 37.0587 7.5663C37.0446 7.40109 37.0641 7.23478 37.1163 7.07718C37.1685 6.91957 37.2522 6.775 37.362 6.65C37.4728 6.52609 37.6065 6.425 37.7565 6.35435C37.9065 6.2837 38.0696 6.24348 38.2359 6.23696H38.4402L38.338 6.0837L36.8533 3.52718L36.8022 3.47608H36.7511C34.8576 3.62935 33.5783 5.31739 33.5783 7.5663C33.587 7.875 33.6207 8.18369 33.6804 8.48695C32.8544 8.88587 31.975 9.16087 31.0696 9.30435C30.4043 9.30435 30.4043 9.04891 30.4043 8.99783C30.4043 8.84456 30.4043 8.64022 31.0696 8.53805C32.2467 8.3337 33.475 7.92391 33.475 6.18587C33.475 4.85652 32.5543 3.425 30.0457 3.425C29.0293 3.42391 28.0283 3.66956 27.1283 4.1413L27.0261 4.19239L27.0772 4.29457L27.8967 5.98152L27.9478 6.0837L28.05 6.03261C28.4728 5.74348 28.9707 5.58369 29.4826 5.57282C30.1489 5.57282 30.2 5.87935 30.2 5.98152C30.2 6.28804 29.8413 6.39022 29.3293 6.44131C29.2576 6.4337 29.1848 6.45217 29.125 6.49239C28.1011 6.64565 27.4359 7.10653 27.1794 7.87283V7.51522C27.1794 4.85652 25.4391 3.425 23.6989 3.425C22.8228 3.4087 21.9761 3.73913 21.3446 4.34565V3.8337H13.9739L13.9228 3.88587L12.4381 6.49239V3.8337H6.55217L6.5 3.93696L5.47718 6.85109L4.04348 3.93696L4.09456 3.8337H0L0.102184 3.98804L3.89021 10.3783L2.04783 14.162L1.94457 14.3152H5.63044L5.68153 14.2641L8.95761 6.74891V11.35H12.5402V8.43587L14.1783 11.2989L14.2294 11.35H17.9663V14.3152H21.3957V7.5663C21.3772 7.4 21.3946 7.23261 21.4456 7.07283C21.4956 6.91413 21.5793 6.76739 21.6902 6.64239C21.8011 6.5163 21.937 6.41631 22.0891 6.34674C22.2402 6.27718 22.4054 6.23913 22.5728 6.23696C22.7391 6.24348 22.9011 6.2837 23.0511 6.35543C23.2011 6.42609 23.3348 6.52718 23.4457 6.65109C23.5554 6.775 23.6391 6.92065 23.6913 7.07718C23.7435 7.23478 23.7641 7.40109 23.75 7.5663C23.7696 7.72826 23.7544 7.89239 23.7076 8.04891C23.6598 8.20543 23.5815 8.35 23.4761 8.475C23.3696 8.6 23.2402 8.70109 23.0935 8.77391C22.9467 8.84565 22.787 8.88695 22.6239 8.89565H22.4196L22.5217 9.04892L24.1087 11.5543L24.1598 11.6054H24.2109C25.6446 11.4522 26.7185 10.3783 27.1283 8.84457C27.1283 9.66304 27.487 11.6054 30.8141 11.6054C32.1957 11.5891 33.5446 11.1815 34.7044 10.4293C35.0065 10.8022 35.3891 11.1011 35.8228 11.3043C36.2576 11.5087 36.7326 11.6109 37.212 11.6054C37.6272 11.6196 38.0402 11.5489 38.4272 11.4C38.8141 11.25 39.1663 11.025 39.4641 10.7359V11.2989H42.9446V6.13478C43.7946 5.81195 44.6978 5.65544 45.6065 5.675C46.2717 5.675 46.5793 5.82826 46.5793 6.18587C46.5793 6.39022 46.3228 6.54348 45.9141 6.54348H44.4293V8.53805H45.8109C46.3739 8.53805 46.6304 8.64021 46.6304 8.89565C46.6304 9.15108 46.3739 9.40652 45.8109 9.40652C45.0663 9.36739 44.3435 9.13913 43.713 8.74239L43.5076 8.64021V11.4011L43.6098 11.4522C44.4196 11.7207 45.2663 11.8587 46.1185 11.8609C48.9848 11.8609 50.0087 10.5826 50.0087 9.45761C50.2598 10.0478 50.6522 10.5663 51.1522 10.9685C51.6522 11.3696 52.2446 11.6413 52.875 11.7587L53.0283 11.8098V7.87283C52.9772 7.10653 53.3359 6.64565 53.95 6.64565ZM85.8902 11.1967L83.075 7.41304L85.5826 4.03913L85.7359 3.8337H81.6413L81.5902 3.88587L80.1565 6.49239V3.8337H76.5739V11.35H80.1565V8.43587L81.7946 11.2989L81.8457 11.35H86.0435L85.8902 11.1967ZM63.8804 6.69783L64.0848 6.59457L63.163 3.88587V3.8337H63.112C62.863 3.74239 62.6065 3.67392 62.3446 3.62935L62.088 3.57826L62.1913 3.78261L63.8804 6.69783ZM39.1054 6.69783L39.3109 6.59457L38.3891 3.8337V3.78261H38.338C38.0891 3.69131 37.8326 3.62283 37.5707 3.57826L37.3141 3.52718L37.4163 3.73152L39.1054 6.69783ZM21.9587 8.89565L21.7544 8.99783L22.6239 11.5033V11.5543H22.675C22.8804 11.6054 23.1359 11.6565 23.3924 11.7076H23.5967L23.4946 11.5033L21.9587 8.89565ZM71.4044 11.4011H71.5065V8.79348H72.6326V11.4011H76.2152V3.8337H72.6326V6.13478H71.5065V3.8337H67.9239V11.35H71.4044V11.4011Z" fill="#005495"/>
</svg>
