<svg width="34" height="34" viewBox="0 0 34 34" fill="none" xmlns="http://www.w3.org/2000/svg">
<rect width="33.5714" height="33.5714" rx="16.7857" fill="#675DA9"/>
<path d="M25.0065 8.52195C24.4512 8.01148 22.2034 6.37707 17.1927 6.35468C17.1927 6.35468 11.2864 5.99646 8.40718 8.63837C6.80412 10.2414 6.23991 12.5833 6.1817 15.4939C6.12349 18.4 6.04736 23.8496 11.2999 25.3272H11.3043L11.2999 27.5796C11.2999 27.5796 11.2685 28.4931 11.8685 28.6767C12.5939 28.9005 13.0238 28.2065 13.7179 27.4587C14.0985 27.0467 14.6224 26.4467 15.0209 25.9855C18.6121 26.2855 21.375 25.5959 21.6884 25.4929C22.4138 25.2556 26.52 24.7317 27.1872 19.2822C27.8768 13.6759 26.8514 10.125 25.0065 8.52195ZM25.6155 18.8881C25.0513 23.4376 21.7242 23.7242 21.1108 23.9212C20.8511 24.0063 18.4241 24.6108 15.3702 24.4093C15.3702 24.4093 13.0955 27.1542 12.388 27.8662C12.276 27.9781 12.1462 28.0229 12.0611 28.0005C11.9402 27.9692 11.9044 27.8259 11.9088 27.6154C11.9088 27.3109 11.9268 23.8675 11.9268 23.8675C11.9223 23.8675 11.9223 23.8675 11.9268 23.8675C7.48027 22.6361 7.73998 17.997 7.78924 15.5701C7.83849 13.1431 8.29523 11.1504 9.65201 9.81157C12.0835 7.60847 17.1031 7.93536 17.1031 7.93536C21.3391 7.95327 23.3676 9.22945 23.8378 9.65484C25.4005 10.9982 26.1976 14.1998 25.6155 18.8881Z" fill="white"/>
<path d="M19.2574 15.6549C19.1096 15.6549 18.9843 15.5385 18.9753 15.3863C18.9261 14.4235 18.4738 13.9534 17.5514 13.9041C17.3946 13.8952 17.2737 13.7608 17.2827 13.6041C17.2916 13.4474 17.426 13.3265 17.5827 13.3354C18.8007 13.4026 19.4813 14.1011 19.544 15.3549C19.553 15.5117 19.4321 15.646 19.2753 15.6505C19.2664 15.6549 19.2619 15.6549 19.2574 15.6549Z" fill="white"/>
<path d="M20.708 16.1391H20.7035C20.5468 16.1346 20.4214 16.0047 20.4259 15.848C20.4483 14.8808 20.1707 14.0972 19.5796 13.4524C18.993 12.8075 18.1825 12.4583 17.1123 12.3822C16.9556 12.3687 16.8392 12.2344 16.8526 12.0777C16.8661 11.9209 17.0004 11.8045 17.1571 11.8179C18.3661 11.9075 19.3199 12.3284 20.0005 13.0717C20.6856 13.8195 21.017 14.7554 20.9946 15.8614C20.9901 16.0182 20.8603 16.1391 20.708 16.1391Z" fill="white"/>
<path d="M22.1942 16.7207C22.0374 16.7207 21.912 16.5954 21.912 16.4386C21.8986 14.7057 21.4016 13.3848 20.3896 12.3952C19.391 11.419 18.1238 10.922 16.6327 10.9085C16.476 10.9085 16.3506 10.7787 16.3506 10.6219C16.3506 10.4652 16.4804 10.3398 16.6327 10.3398C18.2761 10.3533 19.6731 10.9041 20.7792 11.9877C21.8897 13.0713 22.4583 14.5669 22.4763 16.4297C22.4807 16.5909 22.3554 16.7207 22.1942 16.7207C22.1986 16.7207 22.1986 16.7207 22.1942 16.7207Z" fill="white"/>
<path d="M17.6177 19.1612C17.6177 19.1612 18.0163 19.197 18.2312 18.9328L18.6476 18.4089C18.8491 18.1492 19.3372 17.9835 19.8119 18.2477C20.0761 18.3954 20.5552 18.691 20.8507 18.9104C21.1686 19.1432 21.8135 19.6806 21.8179 19.6851C22.1269 19.9448 22.1985 20.3254 21.9881 20.7329C21.9881 20.7329 21.9881 20.7374 21.9881 20.7418C21.7732 21.1224 21.4821 21.4807 21.1194 21.812C21.1149 21.812 21.1149 21.8165 21.1104 21.8165C20.8104 22.0673 20.5149 22.2106 20.2283 22.2419C20.1925 22.2509 20.1522 22.2509 20.0984 22.2509C19.9731 22.2509 19.8477 22.2329 19.7223 22.1926L19.7134 22.1792C19.2656 22.0538 18.5222 21.7404 17.2864 21.0553C16.4804 20.612 15.8132 20.1597 15.2445 19.7074C14.9445 19.4701 14.64 19.2059 14.3265 18.8925C14.3176 18.8835 14.3041 18.8701 14.2952 18.8611C14.2862 18.8522 14.2728 18.8388 14.2638 18.8298C14.2549 18.8208 14.2414 18.8074 14.2325 18.7985C14.2235 18.7895 14.2101 18.7761 14.2011 18.7671C13.8922 18.4537 13.6235 18.1492 13.3862 17.8492C12.9339 17.2849 12.4817 16.6133 12.0384 15.8073C11.3532 14.5669 11.0398 13.8236 10.9144 13.3803L10.901 13.3713C10.8607 13.2459 10.8428 13.1206 10.8428 12.9952C10.8428 12.9415 10.8428 12.9012 10.8517 12.8653C10.8876 12.5743 11.0308 12.2832 11.2771 11.9832C11.2771 11.9787 11.2816 11.9787 11.2816 11.9742C11.613 11.6071 11.9712 11.3205 12.3518 11.1055C12.3518 11.1055 12.3563 11.1055 12.3608 11.1055C12.7638 10.8951 13.1444 10.9667 13.4086 11.2757C13.4086 11.2757 13.9504 11.925 14.1832 12.2429C14.4026 12.5429 14.6982 13.0176 14.846 13.2818C15.1101 13.7564 14.9445 14.2445 14.6848 14.446L14.1608 14.8624C13.8967 15.0774 13.9325 15.4759 13.9325 15.4759C13.9325 15.4759 14.7071 18.4223 17.6177 19.1612Z" fill="white"/>
</svg>
