<svg width="40" height="13" viewBox="0 0 40 13" fill="none" xmlns="http://www.w3.org/2000/svg">
<path d="M19.8054 0.228175L17.1331 12.7219H13.9007L16.5733 0.228175H19.8054ZM33.4037 8.2955L35.1049 3.60387L36.0839 8.2955H33.4037ZM37.0112 12.7219H40L37.3889 0.228175H34.632C34.0107 0.228175 33.4869 0.588421 33.2551 1.14396L28.4052 12.7219H31.7998L32.4736 10.856H36.6198L37.0112 12.7219ZM28.5736 8.6431C28.5876 5.34581 24.0154 5.16316 24.046 3.68986C24.0559 3.24222 24.483 2.76536 25.4165 2.6434C25.8793 2.58383 27.1565 2.53549 28.6042 3.2026L29.1704 0.552172C28.3929 0.270887 27.3922 0 26.1471 0C22.9518 0 20.7041 1.69726 20.6861 4.12963C20.6656 5.92833 22.2917 6.93123 23.5144 7.53033C24.775 8.14264 25.1973 8.5352 25.1911 9.08231C25.1824 9.92055 24.186 10.2918 23.2581 10.3058C21.6322 10.3311 20.6897 9.86631 19.9386 9.51618L19.3519 12.2551C20.1083 12.6013 21.5021 12.9026 22.9453 12.918C26.3424 12.918 28.5634 11.2407 28.5736 8.6431ZM15.1868 0.228175L9.94977 12.7219H6.53361L3.95625 2.75102C3.80001 2.13787 3.66372 1.91251 3.18855 1.65342C2.41129 1.23136 1.12823 0.836548 0 0.59095L0.0764338 0.228175H5.57623C6.27678 0.228175 6.90707 0.694359 7.06752 1.5014L8.42898 8.73162L11.7912 0.228175H15.1868Z" fill="#1434CB"/>
</svg>
