<svg width="27" height="27" viewBox="0 0 27 27" fill="none" xmlns="http://www.w3.org/2000/svg">
<path d="M7.66667 1C7.66667 0.447715 7.21895 0 6.66667 0C6.11438 0 5.66667 0.447715 5.66667 1V3.10568C3.74756 3.25935 2.4877 3.6365 1.5621 4.5621C0.636499 5.4877 0.259351 6.74756 0.105676 8.66667H26.561C26.4073 6.74756 26.0302 5.4877 25.1046 4.5621C24.179 3.6365 22.9191 3.25935 21 3.10568V1C21 0.447715 20.5523 0 20 0C19.4477 0 19 0.447715 19 1V3.0172C18.113 3 17.1187 3 16 3H10.6667C9.54795 3 8.55369 3 7.66667 3.0172V1Z" fill="#783999"/>
<path fill-rule="evenodd" clip-rule="evenodd" d="M0 13.6667C0 12.548 0 11.5537 0.0172027 10.6667H26.6495C26.6667 11.5537 26.6667 12.548 26.6667 13.6667V16.3333C26.6667 21.3616 26.6667 23.8758 25.1046 25.4379C23.5425 27 21.0283 27 16 27H10.6667C5.63835 27 3.12419 27 1.5621 25.4379C0 23.8758 0 21.3616 0 16.3333V13.6667ZM20 16.3333C20.7364 16.3333 21.3333 15.7364 21.3333 15C21.3333 14.2636 20.7364 13.6667 20 13.6667C19.2636 13.6667 18.6667 14.2636 18.6667 15C18.6667 15.7364 19.2636 16.3333 20 16.3333ZM20 21.6667C20.7364 21.6667 21.3333 21.0697 21.3333 20.3333C21.3333 19.597 20.7364 19 20 19C19.2636 19 18.6667 19.597 18.6667 20.3333C18.6667 21.0697 19.2636 21.6667 20 21.6667ZM14.6667 15C14.6667 15.7364 14.0697 16.3333 13.3333 16.3333C12.597 16.3333 12 15.7364 12 15C12 14.2636 12.597 13.6667 13.3333 13.6667C14.0697 13.6667 14.6667 14.2636 14.6667 15ZM14.6667 20.3333C14.6667 21.0697 14.0697 21.6667 13.3333 21.6667C12.597 21.6667 12 21.0697 12 20.3333C12 19.597 12.597 19 13.3333 19C14.0697 19 14.6667 19.597 14.6667 20.3333ZM6.66667 16.3333C7.40305 16.3333 8 15.7364 8 15C8 14.2636 7.40305 13.6667 6.66667 13.6667C5.93029 13.6667 5.33333 14.2636 5.33333 15C5.33333 15.7364 5.93029 16.3333 6.66667 16.3333ZM6.66667 21.6667C7.40305 21.6667 8 21.0697 8 20.3333C8 19.597 7.40305 19 6.66667 19C5.93029 19 5.33333 19.597 5.33333 20.3333C5.33333 21.0697 5.93029 21.6667 6.66667 21.6667Z" fill="#783999"/>
</svg>
