<svg width="27" height="28" viewBox="0 0 27 28" fill="none" xmlns="http://www.w3.org/2000/svg">
<path fill-rule="evenodd" clip-rule="evenodd" d="M4.33333 11.7395V9C4.33333 4.02944 8.36277 0 13.3333 0C18.3039 0 22.3333 4.02944 22.3333 9V11.7395C23.8197 11.8505 24.7876 12.1307 25.4951 12.8382C26.6667 14.0098 26.6667 15.8954 26.6667 19.6667C26.6667 23.4379 26.6667 25.3235 25.4951 26.4951C24.3235 27.6667 22.4379 27.6667 18.6667 27.6667H8C4.22876 27.6667 2.34315 27.6667 1.17157 26.4951C0 25.3235 0 23.4379 0 19.6667C0 15.8954 0 14.0098 1.17157 12.8382C1.87908 12.1307 2.84699 11.8505 4.33333 11.7395ZM6.33333 9C6.33333 5.13401 9.46734 2 13.3333 2C17.1993 2 20.3333 5.13401 20.3333 9V11.6714C19.8227 11.6667 19.2687 11.6667 18.6667 11.6667H8C7.39798 11.6667 6.84401 11.6667 6.33333 11.6714V9Z" fill="#783999"/>
</svg>
