<svg width="32" height="32" viewBox="0 0 32 32" fill="none" xmlns="http://www.w3.org/2000/svg">
<path d="M5.12604 5.12612C3.62465 6.6275 3.62465 9.06172 5.12604 10.5631L7.24302 12.6801C7.25891 12.6617 7.27559 12.6438 7.29304 12.6263L12.6264 7.29297C12.6438 7.27557 12.6617 7.25894 12.68 7.24309L10.563 5.12612C9.06164 3.62474 6.62742 3.62474 5.12604 5.12612Z" fill="#783999"/>
<path d="M14.0905 8.65357C14.0746 8.6719 14.058 8.68978 14.0406 8.70719L8.70726 14.0405C8.6898 14.058 8.67186 14.0747 8.65348 14.0905L21.437 26.874C22.9384 28.3754 25.3726 28.3754 26.874 26.874C28.3753 25.3727 28.3753 22.9384 26.874 21.4371L14.0905 8.65357Z" fill="#783999"/>
<path d="M21.4667 3.07633C21.6813 2.53022 22.4513 2.53022 22.6659 3.07633L23.2398 4.53671C23.3053 4.70345 23.4368 4.83543 23.6029 4.90118L25.0579 5.47715C25.602 5.69253 25.602 6.46542 25.0579 6.6808L23.6029 7.25677C23.4368 7.32253 23.3053 7.45451 23.2398 7.62124L22.6659 9.08162C22.4513 9.62773 21.6813 9.62774 21.4667 9.08162L20.8929 7.62124C20.8274 7.45451 20.6959 7.32253 20.5297 7.25677L19.0747 6.6808C18.5306 6.46542 18.5306 5.69253 19.0747 5.47715L20.5297 4.90118C20.6959 4.83543 20.8274 4.70345 20.8929 4.53671L21.4667 3.07633Z" fill="#783999"/>
<path d="M26.6229 12.1727C26.8375 11.6266 27.6075 11.6266 27.8221 12.1727L28.0314 12.7051C28.0969 12.8719 28.2284 13.0039 28.3945 13.0696L28.925 13.2796C29.4691 13.495 29.4691 14.2679 28.925 14.4833L28.3945 14.6933C28.2284 14.759 28.0969 14.891 28.0314 15.0577L27.8221 15.5902C27.6075 16.1363 26.8375 16.1363 26.6229 15.5902L26.4137 15.0577C26.3482 14.891 26.2167 14.759 26.0506 14.6933L25.5201 14.4833C24.976 14.2679 24.976 13.495 25.5201 13.2796L26.0506 13.0696C26.2167 13.0039 26.3482 12.8719 26.4137 12.7051L26.6229 12.1727Z" fill="#783999"/>
<path d="M6.84426 20.4097C7.05885 19.8636 7.82889 19.8636 8.04348 20.4097L8.25271 20.9421C8.31822 21.1089 8.44972 21.2408 8.61584 21.3066L9.14634 21.5166C9.69044 21.732 9.69044 22.5049 9.14634 22.7203L8.61584 22.9303C8.44972 22.996 8.31822 23.128 8.25271 23.2947L8.04348 23.8272C7.82889 24.3733 7.05885 24.3733 6.84426 23.8272L6.63504 23.2947C6.56952 23.128 6.43803 22.996 6.27191 22.9303L5.74141 22.7203C5.19731 22.5049 5.19731 21.732 5.74141 21.5166L6.27191 21.3066C6.43803 21.2408 6.56952 21.1089 6.63504 20.9421L6.84426 20.4097Z" fill="#783999"/>
</svg>
