<svg width="27" height="27" viewBox="0 0 27 27" fill="none" xmlns="http://www.w3.org/2000/svg">
<path fill-rule="evenodd" clip-rule="evenodd" d="M13.3333 26.6667C20.6971 26.6667 26.6667 20.6971 26.6667 13.3333C26.6667 5.96954 20.6971 0 13.3333 0C5.96954 0 0 5.96954 0 13.3333C0 20.6971 5.96954 26.6667 13.3333 26.6667ZM14.3333 8C14.3333 7.44771 13.8856 7 13.3333 7C12.781 7 12.3333 7.44771 12.3333 8V13.3333C12.3333 13.5985 12.4387 13.8529 12.6262 14.0404L15.9596 17.3738C16.3501 17.7643 16.9832 17.7643 17.3738 17.3738C17.7643 16.9832 17.7643 16.3501 17.3738 15.9596L14.3333 12.9191V8Z" fill="#783999"/>
</svg>
