<svg width="27" height="27" viewBox="0 0 27 27" fill="none" xmlns="http://www.w3.org/2000/svg">
<path fill-rule="evenodd" clip-rule="evenodd" d="M16 26.6667H10.6667C5.63835 26.6667 3.12419 26.6667 1.5621 25.1046C0 23.5425 0 21.0283 0 16V10.6667C0 5.63835 0 3.12419 1.5621 1.5621C3.12419 0 5.65159 0 10.7064 0C11.5144 0 12.1619 -5.68728e-07 12.7067 0.0222149C12.6887 0.12879 12.6793 0.237504 12.679 0.347421L12.6667 4.12662C12.6665 5.58943 12.6664 6.88219 12.8065 7.92421C12.9584 9.0537 13.3071 10.183 14.2288 11.1047C15.1505 12.0264 16.2798 12.3751 17.4093 12.5269C18.4513 12.667 19.7441 12.6669 21.2069 12.6668L21.3333 12.6668H26.6099C26.6667 13.3792 26.6667 14.2535 26.6667 15.4172V16C26.6667 21.0283 26.6667 23.5425 25.1046 25.1046C23.5425 26.6667 21.0283 26.6667 16 26.6667Z" fill="#783999"/>
<path d="M23.1356 7.48887L17.8573 2.73834C16.3534 1.38491 15.6015 0.708191 14.679 0.354167L14.6667 4.00014C14.6667 7.14284 14.6667 8.71419 15.643 9.6905C16.6193 10.6668 18.1906 10.6668 21.3333 10.6668H26.1068C25.6234 9.72784 24.7578 8.94886 23.1356 7.48887Z" fill="#783999"/>
</svg>
