<svg width="27" height="22" viewBox="0 0 27 22" fill="none" xmlns="http://www.w3.org/2000/svg">
<path d="M10.3333 10.6667C10.3333 9.00981 11.6765 7.66667 13.3333 7.66667C14.9902 7.66667 16.3333 9.00981 16.3333 10.6667C16.3333 12.3235 14.9902 13.6667 13.3333 13.6667C11.6765 13.6667 10.3333 12.3235 10.3333 10.6667Z" fill="#783999"/>
<path fill-rule="evenodd" clip-rule="evenodd" d="M0 10.6667C0 12.8525 0.566619 13.5886 1.69986 15.0609C3.96262 18.0006 7.75748 21.3333 13.3333 21.3333C18.9092 21.3333 22.704 18.0006 24.9668 15.0609C26.1 13.5886 26.6667 12.8525 26.6667 10.6667C26.6667 8.48083 26.1 7.7447 24.9668 6.27244C22.704 3.33274 18.9092 0 13.3333 0C7.75748 0 3.96262 3.33275 1.69986 6.27244C0.566619 7.7447 0 8.48083 0 10.6667ZM13.3333 5.66667C10.5719 5.66667 8.33333 7.90524 8.33333 10.6667C8.33333 13.4281 10.5719 15.6667 13.3333 15.6667C16.0948 15.6667 18.3333 13.4281 18.3333 10.6667C18.3333 7.90524 16.0948 5.66667 13.3333 5.66667Z" fill="#783999"/>
</svg>
