<svg width="32" height="32" viewBox="0 0 32 32" fill="none" xmlns="http://www.w3.org/2000/svg">
<path fill-rule="evenodd" clip-rule="evenodd" d="M5.33301 6.66667V25.3333C5.33301 27.5425 7.12387 29.3333 9.33301 29.3333H22.6663C24.8755 29.3333 26.6663 27.5425 26.6663 25.3333V12C26.6663 9.79086 24.8755 8 22.6663 8H6.66634C5.92996 8 5.33301 7.40305 5.33301 6.66667ZM9.66634 16C9.66634 15.4477 10.1141 15 10.6663 15H21.333C21.8853 15 22.333 15.4477 22.333 16C22.333 16.5523 21.8853 17 21.333 17H10.6663C10.1141 17 9.66634 16.5523 9.66634 16ZM9.66634 20.6667C9.66634 20.1144 10.1141 19.6667 10.6663 19.6667H17.9997C18.552 19.6667 18.9997 20.1144 18.9997 20.6667C18.9997 21.219 18.552 21.6667 17.9997 21.6667H10.6663C10.1141 21.6667 9.66634 21.219 9.66634 20.6667Z" fill="#783999"/>
<path d="M5.87805 5.44946C6.3427 5.65784 6.66634 6.12446 6.66634 6.66667H22.6663C23.1267 6.66667 23.5735 6.725 23.9997 6.83469V5.74139C23.9997 4.11859 22.5624 2.87202 20.9559 3.10152L6.55913 5.1582C6.3025 5.19486 6.06995 5.29832 5.87805 5.44946Z" fill="#783999"/>
</svg>
